<svg xmlns="http://www.w3.org/2000/svg" viewBox="0 0 750 500"><g id="freepik--background-complete--inject-35"><polygon points="121.34 472.48 173.4 426.44 561.21 426.44 620.59 474.17 121.34 472.48" style="fill:#ebebeb"></polygon><path d="M125.89,102.11c.59-4.27-5.44-7.79-10-8.16-2.16-.17-4.41.16-6.46-.56-4.44-1.54-6.21-7.28-10.55-9.11-3.23-1.36-7-.15-10.1,1.43s-6.25,3.57-9.75,3.8c-3.06.19-6.37-.94-9,.55-2,1.11-3,3.4-4.87,4.76s-4.13,1.6-6.35,1.72-4.54.14-6.56,1.07-3.71,3.07-3.28,5.26Z" style="fill:#f5f5f5"></path><rect x="471.24" y="145.7" width="62.61" height="264.75" transform="translate(1005.09 556.15) rotate(180)" style="fill:#ebebeb"></rect><rect x="503.15" y="164.26" width="19.03" height="36.67" transform="translate(1025.33 365.18) rotate(180)" style="fill:#fff"></rect><path d="M512.13,200.93c.14,0,.25-8.21.25-18.34s-.11-18.33-.25-18.33-.26,8.2-.26,18.33S512,200.93,512.13,200.93Z" style="fill:#e0e0e0"></path><path d="M503.15,177a181.2,181.2,0,0,0,19,0,174.24,174.24,0,0,0-19,0Z" style="fill:#e0e0e0"></path><path d="M503.05,190.11a184.06,184.06,0,0,0,19.18,0,184.06,184.06,0,0,0-19.18,0Z" style="fill:#e0e0e0"></path><rect x="503.15" y="212.15" width="19.03" height="36.67" transform="translate(1025.33 460.98) rotate(180)" style="fill:#fff"></rect><path d="M512.13,248.82c.14,0,.25-8.21.25-18.33s-.11-18.34-.25-18.34-.26,8.21-.26,18.34S512,248.82,512.13,248.82Z" style="fill:#e0e0e0"></path><path d="M503.15,224.89a174.24,174.24,0,0,0,19,0,181.2,181.2,0,0,0-19,0Z" style="fill:#e0e0e0"></path><path d="M503.05,238a184.06,184.06,0,0,0,19.18,0,177,177,0,0,0-19.18,0Z" style="fill:#e0e0e0"></path><rect x="503.15" y="260.05" width="19.03" height="36.67" transform="translate(1025.33 556.77) rotate(180)" style="fill:#fff"></rect><path d="M512.13,296.72c.14,0,.25-8.21.25-18.33s-.11-18.34-.25-18.34-.26,8.21-.26,18.34S512,296.72,512.13,296.72Z" style="fill:#e0e0e0"></path><path d="M503.15,272.79a181.2,181.2,0,0,0,19,0,174.24,174.24,0,0,0-19,0Z" style="fill:#e0e0e0"></path><path d="M503.05,285.9a177,177,0,0,0,19.18,0,184.06,184.06,0,0,0-19.18,0Z" style="fill:#e0e0e0"></path><rect x="503.15" y="307.95" width="19.03" height="36.67" transform="translate(1025.33 652.56) rotate(180)" style="fill:#fff"></rect><path d="M512.13,344.61c.14,0,.25-8.2.25-18.33s-.11-18.33-.25-18.33-.26,8.2-.26,18.33S512,344.61,512.13,344.61Z" style="fill:#e0e0e0"></path><path d="M503.15,320.69a181.2,181.2,0,0,0,19,0,174.24,174.24,0,0,0-19,0Z" style="fill:#e0e0e0"></path><path d="M503.05,333.8a184.06,184.06,0,0,0,19.18,0,184.06,184.06,0,0,0-19.18,0Z" style="fill:#e0e0e0"></path><rect x="444.62" y="145.7" width="45.62" height="264.75" transform="translate(934.85 556.15) rotate(180)" style="fill:#e0e0e0"></rect><rect x="457.04" y="164.26" width="19.03" height="36.67" transform="translate(933.1 365.18) rotate(180)" style="fill:#fff"></rect><path d="M466,200.93c.14,0,.25-8.21.25-18.34s-.11-18.33-.25-18.33-.26,8.2-.26,18.33S465.88,200.93,466,200.93Z" style="fill:#e0e0e0"></path><path d="M457,177a90.07,90.07,0,0,0,9.51.25,90.19,90.19,0,0,0,9.52-.25,88.44,88.44,0,0,0-9.52-.26A88.33,88.33,0,0,0,457,177Z" style="fill:#e0e0e0"></path><path d="M456.94,190.11a91.49,91.49,0,0,0,9.59.25,91.49,91.49,0,0,0,9.59-.25,91.49,91.49,0,0,0-9.59-.25A91.49,91.49,0,0,0,456.94,190.11Z" style="fill:#e0e0e0"></path><rect x="457.04" y="212.55" width="19.03" height="36.67" transform="translate(933.1 461.76) rotate(180)" style="fill:#fff"></rect><path d="M466,249.21c.14,0,.25-8.2.25-18.33s-.11-18.33-.25-18.33-.26,8.2-.26,18.33S465.88,249.21,466,249.21Z" style="fill:#e0e0e0"></path><path d="M457,225.29a90.07,90.07,0,0,0,9.51.25,90.19,90.19,0,0,0,9.52-.25,88.44,88.44,0,0,0-9.52-.26A88.33,88.33,0,0,0,457,225.29Z" style="fill:#e0e0e0"></path><path d="M456.94,238.4a91.49,91.49,0,0,0,9.59.25,91.49,91.49,0,0,0,9.59-.25,91.49,91.49,0,0,0-9.59-.25A91.49,91.49,0,0,0,456.94,238.4Z" style="fill:#e0e0e0"></path><rect x="457.04" y="260.84" width="19.03" height="36.67" transform="translate(933.1 558.34) rotate(180)" style="fill:#fff"></rect><path d="M466,297.5c.14,0,.25-8.2.25-18.33s-.11-18.33-.25-18.33-.26,8.2-.26,18.33S465.88,297.5,466,297.5Z" style="fill:#e0e0e0"></path><path d="M457,273.58a90.07,90.07,0,0,0,9.51.25,90.19,90.19,0,0,0,9.52-.25,85.44,85.44,0,0,0-9.52-.26A85.32,85.32,0,0,0,457,273.58Z" style="fill:#e0e0e0"></path><path d="M456.94,286.69a91.49,91.49,0,0,0,9.59.25,91.49,91.49,0,0,0,9.59-.25,89.72,89.72,0,0,0-9.59-.26A89.72,89.72,0,0,0,456.94,286.69Z" style="fill:#e0e0e0"></path><rect x="457.04" y="309.13" width="19.03" height="36.67" transform="translate(933.1 654.92) rotate(180)" style="fill:#fff"></rect><path d="M466,345.79c.14,0,.25-8.21.25-18.33s-.11-18.33-.25-18.33-.26,8.2-.26,18.33S465.88,345.79,466,345.79Z" style="fill:#e0e0e0"></path><path d="M457,321.86a85.32,85.32,0,0,0,9.51.26,85.44,85.44,0,0,0,9.52-.26,90.19,90.19,0,0,0-9.52-.25A90.07,90.07,0,0,0,457,321.86Z" style="fill:#e0e0e0"></path><path d="M456.94,335a91.49,91.49,0,0,0,9.59.25,91.49,91.49,0,0,0,9.59-.25,89.72,89.72,0,0,0-9.59-.26A89.72,89.72,0,0,0,456.94,335Z" style="fill:#e0e0e0"></path><rect x="503.15" y="355.84" width="19.03" height="36.67" transform="translate(1025.33 748.35) rotate(180)" style="fill:#fff"></rect><path d="M512.13,392.51c.14,0,.25-8.21.25-18.33s-.11-18.34-.25-18.34-.26,8.21-.26,18.34S512,392.51,512.13,392.51Z" style="fill:#e0e0e0"></path><path d="M503.15,368.58a174.24,174.24,0,0,0,19,0,181.2,181.2,0,0,0-19,0Z" style="fill:#e0e0e0"></path><path d="M503.05,381.7a184.06,184.06,0,0,0,19.18,0,177,177,0,0,0-19.18,0Z" style="fill:#e0e0e0"></path><rect x="457.04" y="357.41" width="19.03" height="36.67" transform="translate(933.1 751.5) rotate(180)" style="fill:#fff"></rect><path d="M466,394.08c.14,0,.25-8.21.25-18.33s-.11-18.34-.25-18.34-.26,8.21-.26,18.34S465.88,394.08,466,394.08Z" style="fill:#e0e0e0"></path><path d="M457,370.15a88.33,88.33,0,0,0,9.51.26,88.44,88.44,0,0,0,9.52-.26,90.19,90.19,0,0,0-9.52-.25A90.07,90.07,0,0,0,457,370.15Z" style="fill:#e0e0e0"></path><path d="M456.94,383.27a91.49,91.49,0,0,0,9.59.25,91.49,91.49,0,0,0,9.59-.25,89.72,89.72,0,0,0-9.59-.26A89.72,89.72,0,0,0,456.94,383.27Z" style="fill:#e0e0e0"></path><rect x="69.25" y="212.34" width="47.15" height="199.39" transform="translate(185.66 624.08) rotate(180)" style="fill:#ebebeb"></rect><rect x="93.29" y="226.32" width="14.33" height="27.62" transform="translate(200.9 480.26) rotate(180)" style="fill:#fff"></rect><path d="M100.05,253.94c.1,0,.19-6.19.19-13.81s-.09-13.81-.19-13.81-.19,6.18-.19,13.81S99.94,253.94,100.05,253.94Z" style="fill:#e0e0e0"></path><path d="M93.29,235.92a69.15,69.15,0,0,0,7.16.19,69.44,69.44,0,0,0,7.17-.19,64.57,64.57,0,0,0-7.17-.2A64.31,64.31,0,0,0,93.29,235.92Z" style="fill:#e0e0e0"></path><path d="M93.21,245.79a67.25,67.25,0,0,0,7.22.19,67.22,67.22,0,0,0,7.23-.19,70.49,70.49,0,0,0-7.23-.19A70.53,70.53,0,0,0,93.21,245.79Z" style="fill:#e0e0e0"></path><rect x="93.29" y="262.39" width="14.33" height="27.62" transform="translate(200.9 552.4) rotate(180)" style="fill:#fff"></rect><path d="M100.05,290c.1,0,.19-6.18.19-13.81s-.09-13.81-.19-13.81-.19,6.19-.19,13.81S99.94,290,100.05,290Z" style="fill:#e0e0e0"></path><path d="M93.29,272a69.15,69.15,0,0,0,7.16.19,69.44,69.44,0,0,0,7.17-.19,66.21,66.21,0,0,0-7.17-.19A66,66,0,0,0,93.29,272Z" style="fill:#e0e0e0"></path><path d="M93.21,281.86a65.58,65.58,0,0,0,7.22.2,65.55,65.55,0,0,0,7.23-.2,70.49,70.49,0,0,0-7.23-.19A70.53,70.53,0,0,0,93.21,281.86Z" style="fill:#e0e0e0"></path><rect x="93.29" y="298.47" width="14.33" height="27.62" transform="translate(200.9 624.55) rotate(180)" style="fill:#fff"></rect><path d="M100.05,326.08c.1,0,.19-6.18.19-13.8s-.09-13.81-.19-13.81-.19,6.18-.19,13.81S99.94,326.08,100.05,326.08Z" style="fill:#e0e0e0"></path><path d="M93.29,308.06a66,66,0,0,0,7.16.19,66.21,66.21,0,0,0,7.17-.19,69.44,69.44,0,0,0-7.17-.19A69.15,69.15,0,0,0,93.29,308.06Z" style="fill:#e0e0e0"></path><path d="M93.21,317.94a70.53,70.53,0,0,0,7.22.19,70.49,70.49,0,0,0,7.23-.19,67.22,67.22,0,0,0-7.23-.19A67.25,67.25,0,0,0,93.21,317.94Z" style="fill:#e0e0e0"></path><rect x="93.29" y="334.54" width="14.33" height="27.62" transform="translate(200.9 696.69) rotate(180)" style="fill:#fff"></rect><path d="M100.05,362.16c.1,0,.19-6.19.19-13.81s-.09-13.81-.19-13.81-.19,6.18-.19,13.81S99.94,362.16,100.05,362.16Z" style="fill:#e0e0e0"></path><path d="M93.29,344.13a64.31,64.31,0,0,0,7.16.2,64.57,64.57,0,0,0,7.17-.2,69.44,69.44,0,0,0-7.17-.19A69.15,69.15,0,0,0,93.29,344.13Z" style="fill:#e0e0e0"></path><path d="M93.21,354a67.25,67.25,0,0,0,7.22.19,67.22,67.22,0,0,0,7.23-.19,67.22,67.22,0,0,0-7.23-.19A67.25,67.25,0,0,0,93.21,354Z" style="fill:#e0e0e0"></path><rect x="49.2" y="212.34" width="34.36" height="199.39" transform="translate(132.76 624.08) rotate(180)" style="fill:#e0e0e0"></rect><rect x="58.56" y="226.32" width="14.33" height="27.62" transform="translate(131.45 480.26) rotate(180)" style="fill:#fff"></rect><path d="M65.32,253.94c.11,0,.19-6.19.19-13.81s-.08-13.81-.19-13.81-.19,6.18-.19,13.81S65.21,253.94,65.32,253.94Z" style="fill:#e0e0e0"></path><path d="M58.56,235.92a69.32,69.32,0,0,0,7.16.19,69.44,69.44,0,0,0,7.17-.19,64.57,64.57,0,0,0-7.17-.2A64.45,64.45,0,0,0,58.56,235.92Z" style="fill:#e0e0e0"></path><path d="M58.48,245.79a67.37,67.37,0,0,0,7.23.19,67.1,67.1,0,0,0,7.22-.19,70.37,70.37,0,0,0-7.22-.19A70.65,70.65,0,0,0,58.48,245.79Z" style="fill:#e0e0e0"></path><rect x="58.56" y="262.69" width="14.33" height="27.62" transform="translate(131.45 553) rotate(180)" style="fill:#fff"></rect><path d="M65.32,290.31c.11,0,.19-6.19.19-13.81s-.08-13.81-.19-13.81-.19,6.18-.19,13.81S65.21,290.31,65.32,290.31Z" style="fill:#e0e0e0"></path><path d="M58.56,272.28a64.45,64.45,0,0,0,7.16.2,64.57,64.57,0,0,0,7.17-.2,69.44,69.44,0,0,0-7.17-.19A69.32,69.32,0,0,0,58.56,272.28Z" style="fill:#e0e0e0"></path><path d="M58.48,282.16a67.37,67.37,0,0,0,7.23.19,67.1,67.1,0,0,0,7.22-.19,67.1,67.1,0,0,0-7.22-.19A67.37,67.37,0,0,0,58.48,282.16Z" style="fill:#e0e0e0"></path><rect x="58.56" y="299.06" width="14.33" height="27.62" transform="translate(131.45 625.73) rotate(180)" style="fill:#fff"></rect><path d="M65.32,326.67c.11,0,.19-6.18.19-13.8s-.08-13.81-.19-13.81-.19,6.18-.19,13.81S65.21,326.67,65.32,326.67Z" style="fill:#e0e0e0"></path><path d="M58.56,308.65a66.1,66.1,0,0,0,7.16.19,66.21,66.21,0,0,0,7.17-.19,69.44,69.44,0,0,0-7.17-.19A69.32,69.32,0,0,0,58.56,308.65Z" style="fill:#e0e0e0"></path><path d="M58.48,318.53a67.37,67.37,0,0,0,7.23.19,67.1,67.1,0,0,0,7.22-.19,67.1,67.1,0,0,0-7.22-.19A67.37,67.37,0,0,0,58.48,318.53Z" style="fill:#e0e0e0"></path><rect x="58.56" y="335.43" width="14.33" height="27.62" transform="translate(131.45 698.47) rotate(180)" style="fill:#fff"></rect><path d="M65.32,363c.11,0,.19-6.18.19-13.8s-.08-13.81-.19-13.81-.19,6.18-.19,13.81S65.21,363,65.32,363Z" style="fill:#e0e0e0"></path><path d="M58.56,345a66.1,66.1,0,0,0,7.16.19,66.21,66.21,0,0,0,7.17-.19,69.44,69.44,0,0,0-7.17-.19A69.32,69.32,0,0,0,58.56,345Z" style="fill:#e0e0e0"></path><path d="M58.48,354.9a70.65,70.65,0,0,0,7.23.19,70.37,70.37,0,0,0,7.22-.19,67.1,67.1,0,0,0-7.22-.19A67.37,67.37,0,0,0,58.48,354.9Z" style="fill:#e0e0e0"></path><rect x="93.29" y="370.61" width="14.33" height="27.62" transform="translate(200.9 768.84) rotate(180)" style="fill:#fff"></rect><path d="M100.05,398.23c.1,0,.19-6.18.19-13.81s-.09-13.81-.19-13.81-.19,6.18-.19,13.81S99.94,398.23,100.05,398.23Z" style="fill:#e0e0e0"></path><path d="M93.29,380.21a69.15,69.15,0,0,0,7.16.19,69.44,69.44,0,0,0,7.17-.19,64.57,64.57,0,0,0-7.17-.2A64.31,64.31,0,0,0,93.29,380.21Z" style="fill:#e0e0e0"></path><path d="M93.21,390.08a67.25,67.25,0,0,0,7.22.19,67.22,67.22,0,0,0,7.23-.19,70.49,70.49,0,0,0-7.23-.19A70.53,70.53,0,0,0,93.21,390.08Z" style="fill:#e0e0e0"></path><rect x="58.56" y="371.8" width="14.33" height="27.62" transform="translate(131.45 771.21) rotate(180)" style="fill:#fff"></rect><path d="M65.32,399.41c.11,0,.19-6.18.19-13.81s-.08-13.8-.19-13.8-.19,6.18-.19,13.8S65.21,399.41,65.32,399.41Z" style="fill:#e0e0e0"></path><path d="M58.56,381.39a66.1,66.1,0,0,0,7.16.19,66.21,66.21,0,0,0,7.17-.19,66.21,66.21,0,0,0-7.17-.19A66.1,66.1,0,0,0,58.56,381.39Z" style="fill:#e0e0e0"></path><path d="M58.48,391.27a70.65,70.65,0,0,0,7.23.19,70.37,70.37,0,0,0,7.22-.19,65.43,65.43,0,0,0-7.22-.2A65.7,65.7,0,0,0,58.48,391.27Z" style="fill:#e0e0e0"></path><rect x="637.9" y="92.93" width="48.83" height="317.84" transform="translate(1324.63 503.71) rotate(180)" style="fill:#ebebeb"></rect><rect x="662.79" y="218.77" width="14.84" height="28.6" transform="translate(1340.41 466.14) rotate(180)" style="fill:#fff"></rect><path d="M669.79,247.37c.11,0,.2-6.4.2-14.3s-.09-14.3-.2-14.3-.2,6.4-.2,14.3S669.68,247.37,669.79,247.37Z" style="fill:#e0e0e0"></path><path d="M662.79,228.71a145,145,0,0,0,14.84,0,137.74,137.74,0,0,0-14.84,0Z" style="fill:#e0e0e0"></path><path d="M662.71,238.93a140,140,0,0,0,15,0,147.33,147.33,0,0,0-15,0Z" style="fill:#e0e0e0"></path><rect x="662.79" y="256.13" width="14.84" height="28.6" transform="translate(1340.41 540.85) rotate(180)" style="fill:#fff"></rect><path d="M669.79,284.72c.11,0,.2-6.4.2-14.29s-.09-14.3-.2-14.3-.2,6.4-.2,14.3S669.68,284.72,669.79,284.72Z" style="fill:#e0e0e0"></path><path d="M662.79,266.06a137.74,137.74,0,0,0,14.84,0,137.74,137.74,0,0,0-14.84,0Z" style="fill:#e0e0e0"></path><path d="M662.71,276.29a140,140,0,0,0,15,0,140,140,0,0,0-15,0Z" style="fill:#e0e0e0"></path><rect x="662.79" y="293.48" width="14.84" height="28.6" transform="translate(1340.41 615.56) rotate(180)" style="fill:#fff"></rect><path d="M669.79,322.08c.11,0,.2-6.4.2-14.3s-.09-14.3-.2-14.3-.2,6.4-.2,14.3S669.68,322.08,669.79,322.08Z" style="fill:#e0e0e0"></path><path d="M662.79,303.42a145,145,0,0,0,14.84,0,137.74,137.74,0,0,0-14.84,0Z" style="fill:#e0e0e0"></path><path d="M662.71,313.64a140,140,0,0,0,15,0,147.33,147.33,0,0,0-15,0Z" style="fill:#e0e0e0"></path><rect x="662.79" y="330.84" width="14.84" height="28.6" transform="translate(1340.41 690.27) rotate(180)" style="fill:#fff"></rect><path d="M669.79,359.43c.11,0,.2-6.4.2-14.29s-.09-14.3-.2-14.3-.2,6.4-.2,14.3S669.68,359.43,669.79,359.43Z" style="fill:#e0e0e0"></path><path d="M662.79,340.77a137.74,137.74,0,0,0,14.84,0,137.74,137.74,0,0,0-14.84,0Z" style="fill:#e0e0e0"></path><path d="M662.71,351a140,140,0,0,0,15,0,140,140,0,0,0-15,0Z" style="fill:#e0e0e0"></path><rect x="617.13" y="92.93" width="35.58" height="317.84" transform="translate(1269.85 503.71) rotate(180)" style="fill:#e0e0e0"></rect><rect x="626.82" y="218.77" width="14.84" height="28.6" transform="translate(1268.49 466.14) rotate(180)" style="fill:#fff"></rect><path d="M633.82,247.37c.11,0,.2-6.4.2-14.3s-.09-14.3-.2-14.3-.19,6.4-.19,14.3S633.72,247.37,633.82,247.37Z" style="fill:#e0e0e0"></path><path d="M626.82,228.71a145,145,0,0,0,14.84,0,137.74,137.74,0,0,0-14.84,0Z" style="fill:#e0e0e0"></path><path d="M626.74,238.93a140.16,140.16,0,0,0,15,0,147.53,147.53,0,0,0-15,0Z" style="fill:#e0e0e0"></path><rect x="662.79" y="180.22" width="14.84" height="28.6" transform="translate(1340.41 389.04) rotate(180)" style="fill:#fff"></rect><path d="M669.79,208.82c.11,0,.2-6.4.2-14.3s-.09-14.3-.2-14.3-.2,6.4-.2,14.3S669.68,208.82,669.79,208.82Z" style="fill:#e0e0e0"></path><path d="M662.79,190.16a145,145,0,0,0,14.84,0,137.74,137.74,0,0,0-14.84,0Z" style="fill:#e0e0e0"></path><path d="M662.71,200.38a140,140,0,0,0,15,0,140,140,0,0,0-15,0Z" style="fill:#e0e0e0"></path><rect x="626.82" y="180.22" width="14.84" height="28.6" transform="translate(1268.49 389.04) rotate(180)" style="fill:#fff"></rect><path d="M633.82,208.82c.11,0,.2-6.4.2-14.3s-.09-14.3-.2-14.3-.19,6.4-.19,14.3S633.72,208.82,633.82,208.82Z" style="fill:#e0e0e0"></path><path d="M626.82,190.16a145,145,0,0,0,14.84,0,137.74,137.74,0,0,0-14.84,0Z" style="fill:#e0e0e0"></path><path d="M626.74,200.38a140.16,140.16,0,0,0,15,0,140.16,140.16,0,0,0-15,0Z" style="fill:#e0e0e0"></path><rect x="662.79" y="141.67" width="14.84" height="28.6" transform="translate(1340.41 311.94) rotate(180)" style="fill:#fff"></rect><path d="M669.79,170.27c.11,0,.2-6.41.2-14.3s-.09-14.3-.2-14.3-.2,6.4-.2,14.3S669.68,170.27,669.79,170.27Z" style="fill:#e0e0e0"></path><path d="M662.79,151.6a137.74,137.74,0,0,0,14.84,0,145,145,0,0,0-14.84,0Z" style="fill:#e0e0e0"></path><path d="M662.71,161.83a140,140,0,0,0,15,0,140,140,0,0,0-15,0Z" style="fill:#e0e0e0"></path><rect x="626.82" y="141.67" width="14.84" height="28.6" transform="translate(1268.49 311.94) rotate(180)" style="fill:#fff"></rect><path d="M633.82,170.27c.11,0,.2-6.41.2-14.3s-.09-14.3-.2-14.3-.19,6.4-.19,14.3S633.72,170.27,633.82,170.27Z" style="fill:#e0e0e0"></path><path d="M626.82,151.6a137.74,137.74,0,0,0,14.84,0,145,145,0,0,0-14.84,0Z" style="fill:#e0e0e0"></path><path d="M626.74,161.83a140.16,140.16,0,0,0,15,0,140.16,140.16,0,0,0-15,0Z" style="fill:#e0e0e0"></path><rect x="662.79" y="103.12" width="14.84" height="28.6" transform="translate(1340.41 234.83) rotate(180)" style="fill:#fff"></rect><path d="M669.79,131.72c.11,0,.2-6.41.2-14.3s-.09-14.3-.2-14.3-.2,6.4-.2,14.3S669.68,131.72,669.79,131.72Z" style="fill:#e0e0e0"></path><path d="M662.79,113.05a137.74,137.74,0,0,0,14.84,0,137.74,137.74,0,0,0-14.84,0Z" style="fill:#e0e0e0"></path><path d="M662.71,123.28a140,140,0,0,0,15,0,140,140,0,0,0-15,0Z" style="fill:#e0e0e0"></path><rect x="626.82" y="103.12" width="14.84" height="28.6" transform="translate(1268.49 234.83) rotate(180)" style="fill:#fff"></rect><path d="M633.82,131.72c.11,0,.2-6.41.2-14.3s-.09-14.3-.2-14.3-.19,6.4-.19,14.3S633.72,131.72,633.82,131.72Z" style="fill:#e0e0e0"></path><path d="M626.82,113.05a137.74,137.74,0,0,0,14.84,0,137.74,137.74,0,0,0-14.84,0Z" style="fill:#e0e0e0"></path><path d="M626.74,123.28a140.16,140.16,0,0,0,15,0,140.16,140.16,0,0,0-15,0Z" style="fill:#e0e0e0"></path><rect x="626.82" y="256.43" width="14.84" height="28.6" transform="translate(1268.49 541.46) rotate(180)" style="fill:#fff"></rect><path d="M633.82,285c.11,0,.2-6.4.2-14.3s-.09-14.3-.2-14.3-.19,6.4-.19,14.3S633.72,285,633.82,285Z" style="fill:#e0e0e0"></path><path d="M626.82,266.37a137.74,137.74,0,0,0,14.84,0,137.74,137.74,0,0,0-14.84,0Z" style="fill:#e0e0e0"></path><path d="M626.74,276.6c0,.1,3.35.19,7.49.19s7.48-.09,7.48-.19a140.16,140.16,0,0,0-15,0Z" style="fill:#e0e0e0"></path><rect x="626.82" y="294.09" width="14.84" height="28.6" transform="translate(1268.49 616.79) rotate(180)" style="fill:#fff"></rect><path d="M633.82,322.69c.11,0,.2-6.4.2-14.3s-.09-14.3-.2-14.3-.19,6.4-.19,14.3S633.72,322.69,633.82,322.69Z" style="fill:#e0e0e0"></path><path d="M626.82,304a137.74,137.74,0,0,0,14.84,0,137.74,137.74,0,0,0-14.84,0Z" style="fill:#e0e0e0"></path><path d="M626.74,314.26a140.16,140.16,0,0,0,15,0,140.16,140.16,0,0,0-15,0Z" style="fill:#e0e0e0"></path><rect x="626.82" y="331.75" width="14.84" height="28.6" transform="translate(1268.49 692.11) rotate(180)" style="fill:#fff"></rect><path d="M633.82,360.35c.11,0,.2-6.4.2-14.3s-.09-14.3-.2-14.3-.19,6.41-.19,14.3S633.72,360.35,633.82,360.35Z" style="fill:#e0e0e0"></path><path d="M626.82,341.69a137.74,137.74,0,0,0,14.84,0,137.74,137.74,0,0,0-14.84,0Z" style="fill:#e0e0e0"></path><path d="M626.74,351.92a140.16,140.16,0,0,0,15,0,140.16,140.16,0,0,0-15,0Z" style="fill:#e0e0e0"></path><rect x="662.79" y="368.19" width="14.84" height="28.6" transform="translate(1340.41 764.98) rotate(180)" style="fill:#fff"></rect><path d="M669.79,396.79c.11,0,.2-6.4.2-14.3s-.09-14.3-.2-14.3-.2,6.4-.2,14.3S669.68,396.79,669.79,396.79Z" style="fill:#e0e0e0"></path><path d="M662.79,378.13a145,145,0,0,0,14.84,0,137.74,137.74,0,0,0-14.84,0Z" style="fill:#e0e0e0"></path><path d="M662.71,388.35a140,140,0,0,0,15,0,140,140,0,0,0-15,0Z" style="fill:#e0e0e0"></path><rect x="626.82" y="369.42" width="14.84" height="28.6" transform="translate(1268.49 767.43) rotate(180)" style="fill:#fff"></rect><path d="M633.82,398c.11,0,.2-6.4.2-14.29s-.09-14.3-.2-14.3-.19,6.4-.19,14.3S633.72,398,633.82,398Z" style="fill:#e0e0e0"></path><path d="M626.82,379.35a137.74,137.74,0,0,0,14.84,0,137.74,137.74,0,0,0-14.84,0Z" style="fill:#e0e0e0"></path><path d="M626.74,389.58a140.16,140.16,0,0,0,15,0,140.16,140.16,0,0,0-15,0Z" style="fill:#e0e0e0"></path><rect x="564.82" y="198.67" width="50.15" height="212.07" transform="translate(1179.78 609.41) rotate(180)" style="fill:#ebebeb"></rect><rect x="590.38" y="213.53" width="15.24" height="29.37" transform="translate(1196 456.44) rotate(180)" style="fill:#fff"></rect><path d="M597.57,242.91c.11,0,.2-6.58.2-14.69s-.09-14.69-.2-14.69-.21,6.58-.21,14.69S597.46,242.91,597.57,242.91Z" style="fill:#e0e0e0"></path><path d="M590.38,223.74a145.26,145.26,0,0,0,15.24,0,145.26,145.26,0,0,0-15.24,0Z" style="fill:#e0e0e0"></path><path d="M590.3,234.24a140.54,140.54,0,0,0,15.36,0,147.56,147.56,0,0,0-15.36,0Z" style="fill:#e0e0e0"></path><rect x="590.38" y="251.9" width="15.24" height="29.37" transform="translate(1196 533.17) rotate(180)" style="fill:#fff"></rect><path d="M597.57,281.27c.11,0,.2-6.57.2-14.68s-.09-14.69-.2-14.69-.21,6.58-.21,14.69S597.46,281.27,597.57,281.27Z" style="fill:#e0e0e0"></path><path d="M590.38,262.11a145.26,145.26,0,0,0,15.24,0,138.35,138.35,0,0,0-15.24,0Z" style="fill:#e0e0e0"></path><path d="M590.3,272.61a147.56,147.56,0,0,0,15.36,0,147.56,147.56,0,0,0-15.36,0Z" style="fill:#e0e0e0"></path><rect x="590.38" y="290.27" width="15.24" height="29.37" transform="translate(1196 609.91) rotate(180)" style="fill:#fff"></rect><path d="M597.57,319.64c.11,0,.2-6.58.2-14.69s-.09-14.68-.2-14.68-.21,6.57-.21,14.68S597.46,319.64,597.57,319.64Z" style="fill:#e0e0e0"></path><path d="M590.38,300.47a138.35,138.35,0,0,0,15.24,0,145.26,145.26,0,0,0-15.24,0Z" style="fill:#e0e0e0"></path><path d="M590.3,311a147.56,147.56,0,0,0,15.36,0,140.54,140.54,0,0,0-15.36,0Z" style="fill:#e0e0e0"></path><rect x="590.38" y="328.63" width="15.24" height="29.37" transform="translate(1196 686.64) rotate(180)" style="fill:#fff"></rect><path d="M597.57,358c.11,0,.2-6.58.2-14.69s-.09-14.69-.2-14.69-.21,6.58-.21,14.69S597.46,358,597.57,358Z" style="fill:#e0e0e0"></path><path d="M590.38,338.84a145.26,145.26,0,0,0,15.24,0,145.26,145.26,0,0,0-15.24,0Z" style="fill:#e0e0e0"></path><path d="M590.3,349.34a140.54,140.54,0,0,0,15.36,0,147.56,147.56,0,0,0-15.36,0Z" style="fill:#e0e0e0"></path><rect x="543.49" y="198.67" width="36.54" height="212.07" transform="translate(1123.52 609.41) rotate(180)" style="fill:#e0e0e0"></rect><rect x="553.44" y="213.53" width="15.24" height="29.37" transform="translate(1122.12 456.44) rotate(180)" style="fill:#fff"></rect><path d="M560.63,242.91c.11,0,.21-6.58.21-14.69s-.1-14.69-.21-14.69-.2,6.58-.2,14.69S560.52,242.91,560.63,242.91Z" style="fill:#e0e0e0"></path><path d="M553.44,223.74a145.26,145.26,0,0,0,15.24,0,145.26,145.26,0,0,0-15.24,0Z" style="fill:#e0e0e0"></path><path d="M553.36,234.24a140.72,140.72,0,0,0,15.37,0,147.75,147.75,0,0,0-15.37,0Z" style="fill:#e0e0e0"></path><rect x="553.44" y="252.22" width="15.24" height="29.37" transform="translate(1122.12 533.8) rotate(180)" style="fill:#fff"></rect><path d="M560.63,281.59c.11,0,.21-6.58.21-14.69s-.1-14.68-.21-14.68-.2,6.57-.2,14.68S560.52,281.59,560.63,281.59Z" style="fill:#e0e0e0"></path><path d="M553.44,262.42a145.26,145.26,0,0,0,15.24,0,145.26,145.26,0,0,0-15.24,0Z" style="fill:#e0e0e0"></path><path d="M553.36,272.92a140.72,140.72,0,0,0,15.37,0,147.75,147.75,0,0,0-15.37,0Z" style="fill:#e0e0e0"></path><rect x="553.44" y="290.9" width="15.24" height="29.37" transform="translate(1122.12 611.17) rotate(180)" style="fill:#fff"></rect><path d="M560.63,320.27c.11,0,.21-6.58.21-14.69s-.1-14.68-.21-14.68-.2,6.57-.2,14.68S560.52,320.27,560.63,320.27Z" style="fill:#e0e0e0"></path><path d="M553.44,301.1a138.35,138.35,0,0,0,15.24,0,145.26,145.26,0,0,0-15.24,0Z" style="fill:#e0e0e0"></path><path d="M553.36,311.61a147.75,147.75,0,0,0,15.37,0,140.72,140.72,0,0,0-15.37,0Z" style="fill:#e0e0e0"></path><rect x="553.44" y="329.58" width="15.24" height="29.37" transform="translate(1122.12 688.53) rotate(180)" style="fill:#fff"></rect><path d="M560.63,359c.11,0,.21-6.57.21-14.68s-.1-14.69-.21-14.69-.2,6.57-.2,14.69S560.52,359,560.63,359Z" style="fill:#e0e0e0"></path><path d="M553.44,339.78a138.35,138.35,0,0,0,15.24,0,145.26,145.26,0,0,0-15.24,0Z" style="fill:#e0e0e0"></path><path d="M553.36,350.29a147.75,147.75,0,0,0,15.37,0,140.72,140.72,0,0,0-15.37,0Z" style="fill:#e0e0e0"></path><rect x="590.38" y="367" width="15.24" height="29.37" transform="translate(1196 763.37) rotate(180)" style="fill:#fff"></rect><path d="M597.57,396.37c.11,0,.2-6.57.2-14.68s-.09-14.69-.2-14.69-.21,6.58-.21,14.69S597.46,396.37,597.57,396.37Z" style="fill:#e0e0e0"></path><path d="M590.38,377.21a145.26,145.26,0,0,0,15.24,0,138.35,138.35,0,0,0-15.24,0Z" style="fill:#e0e0e0"></path><path d="M590.3,387.71a147.56,147.56,0,0,0,15.36,0,147.56,147.56,0,0,0-15.36,0Z" style="fill:#e0e0e0"></path><rect x="553.44" y="368.26" width="15.24" height="29.37" transform="translate(1122.12 765.89) rotate(180)" style="fill:#fff"></rect><path d="M560.63,397.63c.11,0,.21-6.57.21-14.68s-.1-14.69-.21-14.69-.2,6.57-.2,14.69S560.52,397.63,560.63,397.63Z" style="fill:#e0e0e0"></path><path d="M553.44,378.46a138.35,138.35,0,0,0,15.24,0,145.26,145.26,0,0,0-15.24,0Z" style="fill:#e0e0e0"></path><path d="M553.36,389a147.75,147.75,0,0,0,15.37,0,147.75,147.75,0,0,0-15.37,0Z" style="fill:#e0e0e0"></path><rect x="145.96" y="71.89" width="52.16" height="339.55" transform="translate(344.07 483.32) rotate(180)" style="fill:#ebebeb"></rect><rect x="172.54" y="206.32" width="15.85" height="30.55" transform="translate(360.94 443.18) rotate(180)" style="fill:#fff"></rect><path d="M180,236.87c.12,0,.21-6.84.21-15.28s-.09-15.27-.21-15.27-.21,6.83-.21,15.27S179.9,236.87,180,236.87Z" style="fill:#e0e0e0"></path><path d="M172.54,216.93a73.77,73.77,0,0,0,7.93.21,73.5,73.5,0,0,0,7.92-.21,73.5,73.5,0,0,0-7.92-.21A73.77,73.77,0,0,0,172.54,216.93Z" style="fill:#e0e0e0"></path><path d="M172.46,227.86a78.24,78.24,0,0,0,8,.21,78.24,78.24,0,0,0,8-.21,73.23,73.23,0,0,0-8-.22A73.23,73.23,0,0,0,172.46,227.86Z" style="fill:#e0e0e0"></path><rect x="172.54" y="246.22" width="15.85" height="30.55" transform="translate(360.94 522.99) rotate(180)" style="fill:#fff"></rect><path d="M180,276.77c.12,0,.21-6.84.21-15.27s-.09-15.28-.21-15.28-.21,6.84-.21,15.28S179.9,276.77,180,276.77Z" style="fill:#e0e0e0"></path><path d="M172.54,256.83a72.09,72.09,0,0,0,7.93.22,71.83,71.83,0,0,0,7.92-.22,76.74,76.74,0,0,0-7.92-.21A77,77,0,0,0,172.54,256.83Z" style="fill:#e0e0e0"></path><path d="M172.46,267.76a74.93,74.93,0,0,0,8,.21,74.93,74.93,0,0,0,8-.21,74.93,74.93,0,0,0-8-.21A74.93,74.93,0,0,0,172.46,267.76Z" style="fill:#e0e0e0"></path><rect x="172.54" y="286.13" width="15.85" height="30.55" transform="translate(360.94 602.8) rotate(180)" style="fill:#fff"></rect><path d="M180,316.68c.12,0,.21-6.84.21-15.28s-.09-15.27-.21-15.27-.21,6.83-.21,15.27S179.9,316.68,180,316.68Z" style="fill:#e0e0e0"></path><path d="M172.54,296.74a73.77,73.77,0,0,0,7.93.21,73.5,73.5,0,0,0,7.92-.21,73.5,73.5,0,0,0-7.92-.21A73.77,73.77,0,0,0,172.54,296.74Z" style="fill:#e0e0e0"></path><path d="M172.46,307.67a78.24,78.24,0,0,0,8,.21,78.24,78.24,0,0,0,8-.21,73.23,73.23,0,0,0-8-.22A73.23,73.23,0,0,0,172.46,307.67Z" style="fill:#e0e0e0"></path><rect x="172.54" y="326.03" width="15.85" height="30.55" transform="translate(360.94 682.61) rotate(180)" style="fill:#fff"></rect><path d="M180,356.58c.12,0,.21-6.84.21-15.27S180.14,326,180,326s-.21,6.84-.21,15.28S179.9,356.58,180,356.58Z" style="fill:#e0e0e0"></path><path d="M172.54,336.65a77,77,0,0,0,7.93.21,76.74,76.74,0,0,0,7.92-.21,71.83,71.83,0,0,0-7.92-.22A72.09,72.09,0,0,0,172.54,336.65Z" style="fill:#e0e0e0"></path><path d="M172.46,347.57a74.93,74.93,0,0,0,8,.21,74.93,74.93,0,0,0,8-.21,74.93,74.93,0,0,0-8-.21A74.93,74.93,0,0,0,172.46,347.57Z" style="fill:#e0e0e0"></path><rect x="123.77" y="71.89" width="38.01" height="339.55" transform="translate(285.55 483.32) rotate(180)" style="fill:#e0e0e0"></rect><rect x="134.12" y="206.32" width="15.85" height="30.55" transform="translate(284.1 443.18) rotate(180)" style="fill:#fff"></rect><path d="M141.6,236.87c.12,0,.21-6.84.21-15.28s-.09-15.27-.21-15.27-.21,6.83-.21,15.27S141.49,236.87,141.6,236.87Z" style="fill:#e0e0e0"></path><path d="M134.12,216.93a73.77,73.77,0,0,0,7.93.21,73.77,73.77,0,0,0,7.93-.21,73.77,73.77,0,0,0-7.93-.21A73.77,73.77,0,0,0,134.12,216.93Z" style="fill:#e0e0e0"></path><path d="M134,227.86a78.24,78.24,0,0,0,8,.21,78.24,78.24,0,0,0,8-.21,73.23,73.23,0,0,0-8-.22A73.23,73.23,0,0,0,134,227.86Z" style="fill:#e0e0e0"></path><rect x="172.54" y="165.13" width="15.85" height="30.55" transform="translate(360.94 360.81) rotate(180)" style="fill:#fff"></rect><path d="M180,195.68c.12,0,.21-6.84.21-15.27s-.09-15.28-.21-15.28-.21,6.84-.21,15.28S179.9,195.68,180,195.68Z" style="fill:#e0e0e0"></path><path d="M172.54,175.75a77,77,0,0,0,7.93.21,76.74,76.74,0,0,0,7.92-.21,71.83,71.83,0,0,0-7.92-.22A72.09,72.09,0,0,0,172.54,175.75Z" style="fill:#e0e0e0"></path><path d="M172.46,186.67a74.93,74.93,0,0,0,8,.21,74.93,74.93,0,0,0,8-.21,74.93,74.93,0,0,0-8-.21A74.93,74.93,0,0,0,172.46,186.67Z" style="fill:#e0e0e0"></path><rect x="134.12" y="165.13" width="15.85" height="30.55" transform="translate(284.1 360.81) rotate(180)" style="fill:#fff"></rect><path d="M141.6,195.68c.12,0,.21-6.84.21-15.27s-.09-15.28-.21-15.28-.21,6.84-.21,15.28S141.49,195.68,141.6,195.68Z" style="fill:#e0e0e0"></path><path d="M134.12,175.75a77,77,0,0,0,7.93.21,77,77,0,0,0,7.93-.21,72.09,72.09,0,0,0-7.93-.22A72.09,72.09,0,0,0,134.12,175.75Z" style="fill:#e0e0e0"></path><path d="M134,186.67a74.93,74.93,0,0,0,8,.21,74.93,74.93,0,0,0,8-.21,74.93,74.93,0,0,0-8-.21A74.93,74.93,0,0,0,134,186.67Z" style="fill:#e0e0e0"></path><rect x="172.54" y="123.95" width="15.85" height="30.55" transform="translate(360.94 278.45) rotate(180)" style="fill:#fff"></rect><path d="M180,154.5c.12,0,.21-6.84.21-15.28S180.14,124,180,124s-.21,6.84-.21,15.27S179.9,154.5,180,154.5Z" style="fill:#e0e0e0"></path><path d="M172.54,134.56a73.77,73.77,0,0,0,7.93.21,73.5,73.5,0,0,0,7.92-.21,73.5,73.5,0,0,0-7.92-.21A73.77,73.77,0,0,0,172.54,134.56Z" style="fill:#e0e0e0"></path><path d="M172.46,145.49a78.24,78.24,0,0,0,8,.21,78.24,78.24,0,0,0,8-.21,74.93,74.93,0,0,0-8-.21A74.93,74.93,0,0,0,172.46,145.49Z" style="fill:#e0e0e0"></path><rect x="134.12" y="123.95" width="15.85" height="30.55" transform="translate(284.1 278.45) rotate(180)" style="fill:#fff"></rect><path d="M141.6,154.5c.12,0,.21-6.84.21-15.28S141.72,124,141.6,124s-.21,6.84-.21,15.27S141.49,154.5,141.6,154.5Z" style="fill:#e0e0e0"></path><path d="M134.12,134.56a73.77,73.77,0,0,0,7.93.21,73.77,73.77,0,0,0,7.93-.21,73.77,73.77,0,0,0-7.93-.21A73.77,73.77,0,0,0,134.12,134.56Z" style="fill:#e0e0e0"></path><path d="M134,145.49a78.24,78.24,0,0,0,8,.21,78.24,78.24,0,0,0,8-.21,74.93,74.93,0,0,0-8-.21A74.93,74.93,0,0,0,134,145.49Z" style="fill:#e0e0e0"></path><rect x="172.54" y="82.76" width="15.85" height="30.55" transform="translate(360.94 196.08) rotate(180)" style="fill:#fff"></rect><path d="M180,113.31c.12,0,.21-6.83.21-15.27s-.09-15.28-.21-15.28-.21,6.84-.21,15.28S179.9,113.31,180,113.31Z" style="fill:#e0e0e0"></path><path d="M172.54,93.38a73.77,73.77,0,0,0,7.93.21,73.5,73.5,0,0,0,7.92-.21,73.5,73.5,0,0,0-7.92-.21A73.77,73.77,0,0,0,172.54,93.38Z" style="fill:#e0e0e0"></path><path d="M172.46,104.3a73.23,73.23,0,0,0,8,.22,73.23,73.23,0,0,0,8-.22,78.24,78.24,0,0,0-8-.21A78.24,78.24,0,0,0,172.46,104.3Z" style="fill:#e0e0e0"></path><rect x="134.12" y="82.76" width="15.85" height="30.55" transform="translate(284.1 196.08) rotate(180)" style="fill:#fff"></rect><path d="M141.6,113.31c.12,0,.21-6.83.21-15.27s-.09-15.28-.21-15.28-.21,6.84-.21,15.28S141.49,113.31,141.6,113.31Z" style="fill:#e0e0e0"></path><path d="M134.12,93.38a73.77,73.77,0,0,0,7.93.21,73.77,73.77,0,0,0,7.93-.21,73.77,73.77,0,0,0-7.93-.21A73.77,73.77,0,0,0,134.12,93.38Z" style="fill:#e0e0e0"></path><path d="M134,104.3a73.23,73.23,0,0,0,8,.22,73.23,73.23,0,0,0,8-.22,78.24,78.24,0,0,0-8-.21A78.24,78.24,0,0,0,134,104.3Z" style="fill:#e0e0e0"></path><rect x="134.12" y="246.55" width="15.85" height="30.55" transform="translate(284.1 523.65) rotate(180)" style="fill:#fff"></rect><path d="M141.6,277.1c.12,0,.21-6.84.21-15.28s-.09-15.27-.21-15.27-.21,6.84-.21,15.27S141.49,277.1,141.6,277.1Z" style="fill:#e0e0e0"></path><path d="M134.12,257.16a73.77,73.77,0,0,0,7.93.21,73.77,73.77,0,0,0,7.93-.21,77,77,0,0,0-7.93-.21A77,77,0,0,0,134.12,257.16Z" style="fill:#e0e0e0"></path><path d="M134,268.09a74.93,74.93,0,0,0,8,.21,74.93,74.93,0,0,0,8-.21,74.93,74.93,0,0,0-8-.21A74.93,74.93,0,0,0,134,268.09Z" style="fill:#e0e0e0"></path><rect x="134.12" y="286.78" width="15.85" height="30.55" transform="translate(284.1 604.11) rotate(180)" style="fill:#fff"></rect><path d="M141.6,317.33c.12,0,.21-6.84.21-15.27s-.09-15.28-.21-15.28-.21,6.84-.21,15.28S141.49,317.33,141.6,317.33Z" style="fill:#e0e0e0"></path><path d="M134.12,297.4a77,77,0,0,0,7.93.21,77,77,0,0,0,7.93-.21,72.09,72.09,0,0,0-7.93-.22A72.09,72.09,0,0,0,134.12,297.4Z" style="fill:#e0e0e0"></path><path d="M134,308.32a74.93,74.93,0,0,0,8,.21,74.93,74.93,0,0,0,8-.21,74.93,74.93,0,0,0-8-.21A74.93,74.93,0,0,0,134,308.32Z" style="fill:#e0e0e0"></path><rect x="134.12" y="327.01" width="15.85" height="30.55" transform="translate(284.1 684.58) rotate(180)" style="fill:#fff"></rect><path d="M141.6,357.57c.12,0,.21-6.84.21-15.28S141.72,327,141.6,327s-.21,6.84-.21,15.28S141.49,357.57,141.6,357.57Z" style="fill:#e0e0e0"></path><path d="M134.12,337.63a73.77,73.77,0,0,0,7.93.21,73.77,73.77,0,0,0,7.93-.21,73.77,73.77,0,0,0-7.93-.21A73.77,73.77,0,0,0,134.12,337.63Z" style="fill:#e0e0e0"></path><path d="M134,348.55a73.23,73.23,0,0,0,8,.22,73.23,73.23,0,0,0,8-.22,78.24,78.24,0,0,0-8-.21A78.24,78.24,0,0,0,134,348.55Z" style="fill:#e0e0e0"></path><rect x="172.54" y="365.94" width="15.85" height="30.55" transform="translate(360.94 762.43) rotate(180)" style="fill:#fff"></rect><path d="M180,396.49c.12,0,.21-6.84.21-15.28s-.09-15.27-.21-15.27-.21,6.84-.21,15.27S179.9,396.49,180,396.49Z" style="fill:#e0e0e0"></path><path d="M172.54,376.55a73.77,73.77,0,0,0,7.93.21,73.5,73.5,0,0,0,7.92-.21,73.5,73.5,0,0,0-7.92-.21A73.77,73.77,0,0,0,172.54,376.55Z" style="fill:#e0e0e0"></path><path d="M172.46,387.48a78.24,78.24,0,0,0,8,.21,78.24,78.24,0,0,0,8-.21,74.93,74.93,0,0,0-8-.21A74.93,74.93,0,0,0,172.46,387.48Z" style="fill:#e0e0e0"></path><rect x="134.12" y="367.25" width="15.85" height="30.55" transform="translate(284.1 765.05) rotate(180)" style="fill:#fff"></rect><path d="M141.6,397.8c.12,0,.21-6.84.21-15.28s-.09-15.27-.21-15.27-.21,6.84-.21,15.27S141.49,397.8,141.6,397.8Z" style="fill:#e0e0e0"></path><path d="M134.12,377.86a73.77,73.77,0,0,0,7.93.21,73.77,73.77,0,0,0,7.93-.21,73.77,73.77,0,0,0-7.93-.21A73.77,73.77,0,0,0,134.12,377.86Z" style="fill:#e0e0e0"></path><path d="M134,388.79a78.24,78.24,0,0,0,8,.21,78.24,78.24,0,0,0,8-.21,74.93,74.93,0,0,0-8-.21A74.93,74.93,0,0,0,134,388.79Z" style="fill:#e0e0e0"></path><rect x="221.26" y="162.04" width="59.12" height="250.02" transform="translate(501.64 574.1) rotate(180)" style="fill:#ebebeb"></rect><rect x="251.39" y="179.57" width="17.97" height="34.63" transform="translate(520.76 393.76) rotate(180)" style="fill:#fff"></rect><path d="M259.87,214.19c.13,0,.24-7.75.24-17.31s-.11-17.31-.24-17.31-.24,7.75-.24,17.31S259.74,214.19,259.87,214.19Z" style="fill:#e0e0e0"></path><path d="M251.39,191.6a85.29,85.29,0,0,0,9,.24,85,85,0,0,0,9-.24,81.91,81.91,0,0,0-9-.24A82.17,82.17,0,0,0,251.39,191.6Z" style="fill:#e0e0e0"></path><path d="M251.3,204a86.44,86.44,0,0,0,9.06.24,86.6,86.6,0,0,0,9.06-.24,86.6,86.6,0,0,0-9.06-.24A86.44,86.44,0,0,0,251.3,204Z" style="fill:#e0e0e0"></path><rect x="251.39" y="224.8" width="17.97" height="34.63" transform="translate(520.76 484.22) rotate(180)" style="fill:#fff"></rect><path d="M259.87,259.42c.13,0,.24-7.75.24-17.31s-.11-17.31-.24-17.31-.24,7.75-.24,17.31S259.74,259.42,259.87,259.42Z" style="fill:#e0e0e0"></path><path d="M251.39,236.83a85.29,85.29,0,0,0,9,.24,85,85,0,0,0,9-.24,81.91,81.91,0,0,0-9-.24A82.17,82.17,0,0,0,251.39,236.83Z" style="fill:#e0e0e0"></path><path d="M251.3,249.21a86.44,86.44,0,0,0,9.06.24,86.6,86.6,0,0,0,9.06-.24,86.6,86.6,0,0,0-9.06-.24A86.44,86.44,0,0,0,251.3,249.21Z" style="fill:#e0e0e0"></path><rect x="251.39" y="270.03" width="17.97" height="34.63" transform="translate(520.76 574.68) rotate(180)" style="fill:#fff"></rect><path d="M259.87,304.66c.13,0,.24-7.76.24-17.32S260,270,259.87,270s-.24,7.75-.24,17.31S259.74,304.66,259.87,304.66Z" style="fill:#e0e0e0"></path><path d="M251.39,282.06a85.29,85.29,0,0,0,9,.24,85,85,0,0,0,9-.24,85,85,0,0,0-9-.24A85.29,85.29,0,0,0,251.39,282.06Z" style="fill:#e0e0e0"></path><path d="M251.3,294.44a86.44,86.44,0,0,0,9.06.24,86.6,86.6,0,0,0,9.06-.24,86.6,86.6,0,0,0-9.06-.24A86.44,86.44,0,0,0,251.3,294.44Z" style="fill:#e0e0e0"></path><rect x="251.39" y="315.26" width="17.97" height="34.63" transform="translate(520.76 665.14) rotate(180)" style="fill:#fff"></rect><path d="M259.87,349.89c.13,0,.24-7.76.24-17.32s-.11-17.31-.24-17.31-.24,7.75-.24,17.31S259.74,349.89,259.87,349.89Z" style="fill:#e0e0e0"></path><path d="M251.39,327.29a85.29,85.29,0,0,0,9,.24,85,85,0,0,0,9-.24,85,85,0,0,0-9-.24A85.29,85.29,0,0,0,251.39,327.29Z" style="fill:#e0e0e0"></path><path d="M251.3,339.67a83.28,83.28,0,0,0,9.06.24,83.43,83.43,0,0,0,9.06-.24,86.6,86.6,0,0,0-9.06-.24A86.44,86.44,0,0,0,251.3,339.67Z" style="fill:#e0e0e0"></path><rect x="196.12" y="162.04" width="43.08" height="250.02" transform="translate(435.31 574.1) rotate(180)" style="fill:#e0e0e0"></rect><rect x="207.85" y="179.57" width="17.97" height="34.63" transform="translate(433.66 393.76) rotate(180)" style="fill:#fff"></rect><path d="M216.33,214.19c.13,0,.24-7.75.24-17.31s-.11-17.31-.24-17.31-.24,7.75-.24,17.31S216.19,214.19,216.33,214.19Z" style="fill:#e0e0e0"></path><path d="M207.85,191.6a85,85,0,0,0,9,.24,85.14,85.14,0,0,0,9-.24,82,82,0,0,0-9-.24A81.91,81.91,0,0,0,207.85,191.6Z" style="fill:#e0e0e0"></path><path d="M207.75,204a86.6,86.6,0,0,0,9.06.24,86.6,86.6,0,0,0,9.06-.24,86.6,86.6,0,0,0-9.06-.24A86.6,86.6,0,0,0,207.75,204Z" style="fill:#e0e0e0"></path><rect x="207.85" y="225.17" width="17.97" height="34.63" transform="translate(433.66 484.96) rotate(180)" style="fill:#fff"></rect><path d="M216.33,259.8c.13,0,.24-7.76.24-17.32s-.11-17.31-.24-17.31-.24,7.75-.24,17.31S216.19,259.8,216.33,259.8Z" style="fill:#e0e0e0"></path><path d="M207.85,237.2a85,85,0,0,0,9,.24,85.14,85.14,0,0,0,9-.24,85.14,85.14,0,0,0-9-.24A85,85,0,0,0,207.85,237.2Z" style="fill:#e0e0e0"></path><path d="M207.75,249.58a86.6,86.6,0,0,0,9.06.24,86.6,86.6,0,0,0,9.06-.24,86.6,86.6,0,0,0-9.06-.24A86.6,86.6,0,0,0,207.75,249.58Z" style="fill:#e0e0e0"></path><rect x="207.85" y="270.77" width="17.97" height="34.63" transform="translate(433.66 576.17) rotate(180)" style="fill:#fff"></rect><path d="M216.33,305.4c.13,0,.24-7.75.24-17.32s-.11-17.31-.24-17.31-.24,7.75-.24,17.31S216.19,305.4,216.33,305.4Z" style="fill:#e0e0e0"></path><path d="M207.85,282.8a85,85,0,0,0,9,.24,85.14,85.14,0,0,0,9-.24,85.14,85.14,0,0,0-9-.24A85,85,0,0,0,207.85,282.8Z" style="fill:#e0e0e0"></path><path d="M207.75,295.18a83.43,83.43,0,0,0,9.06.24,83.43,83.43,0,0,0,9.06-.24,86.6,86.6,0,0,0-9.06-.24A86.6,86.6,0,0,0,207.75,295.18Z" style="fill:#e0e0e0"></path><rect x="207.85" y="316.37" width="17.97" height="34.63" transform="translate(433.66 667.37) rotate(180)" style="fill:#fff"></rect><path d="M216.33,351c.13,0,.24-7.75.24-17.31s-.11-17.32-.24-17.32-.24,7.75-.24,17.32S216.19,351,216.33,351Z" style="fill:#e0e0e0"></path><path d="M207.85,328.4a85,85,0,0,0,9,.24,85.14,85.14,0,0,0,9-.24,85.14,85.14,0,0,0-9-.24A85,85,0,0,0,207.85,328.4Z" style="fill:#e0e0e0"></path><path d="M207.75,340.79a86.6,86.6,0,0,0,9.06.24,86.6,86.6,0,0,0,9.06-.24,83.43,83.43,0,0,0-9.06-.24A83.43,83.43,0,0,0,207.75,340.79Z" style="fill:#e0e0e0"></path><rect x="251.39" y="360.49" width="17.97" height="34.63" transform="translate(520.76 755.61) rotate(180)" style="fill:#fff"></rect><path d="M259.87,395.12c.13,0,.24-7.76.24-17.32s-.11-17.31-.24-17.31-.24,7.75-.24,17.31S259.74,395.12,259.87,395.12Z" style="fill:#e0e0e0"></path><path d="M251.39,372.52a85.29,85.29,0,0,0,9,.24,85,85,0,0,0,9-.24,85,85,0,0,0-9-.24A85.29,85.29,0,0,0,251.39,372.52Z" style="fill:#e0e0e0"></path><path d="M251.3,384.9a83.28,83.28,0,0,0,9.06.24,83.43,83.43,0,0,0,9.06-.24,86.6,86.6,0,0,0-9.06-.24A86.44,86.44,0,0,0,251.3,384.9Z" style="fill:#e0e0e0"></path><rect x="207.85" y="361.97" width="17.97" height="34.63" transform="translate(433.66 758.58) rotate(180)" style="fill:#fff"></rect><path d="M216.33,396.6c.13,0,.24-7.75.24-17.31s-.11-17.32-.24-17.32-.24,7.75-.24,17.32S216.19,396.6,216.33,396.6Z" style="fill:#e0e0e0"></path><path d="M207.85,374a81.91,81.91,0,0,0,9,.24,82,82,0,0,0,9-.24,85.14,85.14,0,0,0-9-.24A85,85,0,0,0,207.85,374Z" style="fill:#e0e0e0"></path><path d="M207.75,386.39a86.6,86.6,0,0,0,9.06.24,86.6,86.6,0,0,0,9.06-.24,86.6,86.6,0,0,0-9.06-.24A86.6,86.6,0,0,0,207.75,386.39Z" style="fill:#e0e0e0"></path><path d="M262.88,50c.59-4.27-5.45-7.79-10-8.16-2.17-.17-4.42.16-6.46-.56-4.44-1.54-6.22-7.28-10.55-9.11-3.24-1.36-7-.15-10.11,1.43s-6.24,3.57-9.75,3.8c-3.05.19-6.37-.94-9,.55-2,1.11-3,3.4-4.86,4.76s-4.13,1.6-6.36,1.72-4.53.14-6.56,1.07-3.7,3.07-3.28,5.26Z" style="fill:#f5f5f5"></path><path d="M691.2,58.11c.59-4.28-5.45-7.8-10-8.16-2.16-.18-4.41.15-6.46-.56-4.44-1.55-6.21-7.29-10.54-9.11-3.24-1.37-7-.15-10.11,1.43s-6.24,3.57-9.75,3.79c-3.05.2-6.37-.93-9,.56-2,1.11-3,3.4-4.86,4.75s-4.14,1.6-6.36,1.73-4.53.14-6.56,1.07-3.7,3.07-3.28,5.26Z" style="fill:#f5f5f5"></path><path d="M559.08,103.77c.72-5.25-6.69-9.57-12.25-10-2.65-.22-5.41.19-7.92-.69-5.45-1.9-7.62-8.93-12.94-11.17-4-1.68-8.54-.19-12.39,1.75s-7.66,4.38-12,4.65c-3.74.24-7.81-1.14-11.08.68-2.44,1.37-3.72,4.18-6,5.84s-5.07,2-7.8,2.11-5.56.18-8,1.32-4.54,3.76-4,6.45Z" style="fill:#ebebeb"></path></g><g id="freepik--Floor--inject-35"><path d="M727,411.74c0,.14-157.62.26-352,.26s-352-.12-352-.26,157.59-.26,352-.26S727,411.6,727,411.74Z" style="fill:#263238"></path><path d="M727,425.62c0,.15-157.62.26-352,.26s-352-.11-352-.26,157.59-.26,352-.26S727,425.48,727,425.62Z" style="fill:#263238"></path><path d="M62.37,425.62a92.75,92.75,0,0,1,0-13.88,92.75,92.75,0,0,1,0,13.88Z" style="fill:#263238"></path><path d="M120.92,425.62a92.75,92.75,0,0,1,0-13.88,92.75,92.75,0,0,1,0,13.88Z" style="fill:#263238"></path><path d="M180.47,425.62a92.75,92.75,0,0,1,0-13.88,92.75,92.75,0,0,1,0,13.88Z" style="fill:#263238"></path><path d="M240,425.62a92.75,92.75,0,0,1,0-13.88,92.75,92.75,0,0,1,0,13.88Z" style="fill:#263238"></path><path d="M299.57,425.62a92.75,92.75,0,0,1,0-13.88,92.75,92.75,0,0,1,0,13.88Z" style="fill:#263238"></path><path d="M359.12,425.62a92.75,92.75,0,0,1,0-13.88,92.75,92.75,0,0,1,0,13.88Z" style="fill:#263238"></path><path d="M418.67,425.62a89.33,89.33,0,0,1,0-13.88,92.75,92.75,0,0,1,0,13.88Z" style="fill:#263238"></path><path d="M478.21,425.62a92.75,92.75,0,0,1,0-13.88,89.33,89.33,0,0,1,0,13.88Z" style="fill:#263238"></path><path d="M537.76,425.62a92.75,92.75,0,0,1,0-13.88,92.75,92.75,0,0,1,0,13.88Z" style="fill:#263238"></path><path d="M597.31,425.62a92.75,92.75,0,0,1,0-13.88,92.75,92.75,0,0,1,0,13.88Z" style="fill:#263238"></path><path d="M656.86,425.62a92.75,92.75,0,0,1,0-13.88,92.75,92.75,0,0,1,0,13.88Z" style="fill:#263238"></path><path d="M716.41,425.62a92.75,92.75,0,0,1,0-13.88,92.75,92.75,0,0,1,0,13.88Z" style="fill:#263238"></path></g><g id="freepik--Birds--inject-35"><path d="M360.48,98.15s-.88-.3-2.51-.66a20,20,0,0,0-7-.27,18.9,18.9,0,0,0-9.45,4.07,19.6,19.6,0,0,0-6.67,10.59l0,.12-.2.76-.29-.72a21,21,0,0,0-8-9.64,20.33,20.33,0,0,0-9.76-3.25,21.43,21.43,0,0,0-7,.63c-1.61.43-2.46.8-2.48.75a4.39,4.39,0,0,1,.6-.29,16.31,16.31,0,0,1,1.82-.65,20.89,20.89,0,0,1,17,2.41,21.44,21.44,0,0,1,8.21,9.85l-.49,0,0-.12a20,20,0,0,1,6.87-10.84,19,19,0,0,1,9.7-4.07,19.61,19.61,0,0,1,7.11.43,14.73,14.73,0,0,1,1.85.59A3.4,3.4,0,0,1,360.48,98.15Z" style="fill:#263238"></path><path d="M422.87,66.64s-.49-.13-1.39-.32a11.29,11.29,0,0,0-3.84-.11,10.28,10.28,0,0,0-5.14,2.24,10.71,10.71,0,0,0-3.62,5.77l0,.07-.19.75-.29-.72A11.56,11.56,0,0,0,404,69.07a11.17,11.17,0,0,0-5.31-1.8,12.36,12.36,0,0,0-3.81.31c-.89.22-1.36.41-1.38.37a1.16,1.16,0,0,1,.33-.18,7.21,7.21,0,0,1,1-.38,11.14,11.14,0,0,1,3.89-.48,11.32,11.32,0,0,1,5.55,1.76,11.81,11.81,0,0,1,4.56,5.46l-.49,0,0-.06a11,11,0,0,1,3.83-6,10.52,10.52,0,0,1,5.39-2.24,10.37,10.37,0,0,1,3.93.28,6.79,6.79,0,0,1,1,.34A1.37,1.37,0,0,1,422.87,66.64Z" style="fill:#263238"></path><path d="M377,50.9s-.48.55-1.35,1.53a32.88,32.88,0,0,0-3.29,4.44,32.39,32.39,0,0,0-4.89,17.29v.22l-.51,0a28.3,28.3,0,0,0-3.16-9.37,28.87,28.87,0,0,0-4.81-6.5A30.28,30.28,0,0,0,354.85,55a19.23,19.23,0,0,1-1.66-1.14,1.71,1.71,0,0,1,.47.22,14.33,14.33,0,0,1,1.3.76,25.91,25.91,0,0,1,4.31,3.45,28.61,28.61,0,0,1,8.23,16l-.51,0v-.22a31.84,31.84,0,0,1,5.1-17.5,28.79,28.79,0,0,1,3.44-4.38c.45-.49.84-.82,1.09-1.06S377,50.88,377,50.9Z" style="fill:#263238"></path></g><g id="freepik--Limousine--inject-35"><rect x="71.04" y="303.94" width="626.53" height="60.1" style="fill:#C89768"></rect><rect x="71.04" y="303.94" width="626.53" height="60.1" style="opacity:0.30000000000000004"></rect><path d="M588.81,279.48S699,280.39,714.54,297a30.19,30.19,0,0,1,8.67,16.58c1.53,10.2,3.82,23.46,2.8,35.95s-5.61,34.68-5.61,34.68H687.77S697.92,341,663.6,327.05a49.65,49.65,0,0,0-38.61.6c-14.81,6.51-31.07,21.7-23.54,56.52l-322.93-.77,3.21-149.6,181.33-2.73a124.63,124.63,0,0,1,44.9,8.57c1.57.62,3.11,1.27,4.59,1.94,13.81,6.28,63.64,38.12,63.64,38.12Z" style="fill:#C89768"></path><path d="M30.62,326.4s7.62-28,11.25-32.68,4-9.81,15.25-11.62S95.61,277,95.61,277s57.17-32.35,67.7-36.35,28.3-6.35,53.48-6.86,105.44,0,105.44,0V383.4H174.77s1.66-60.15-50.29-59.73c-52.1.41-45.92,57.59-45.92,57.59s-43.58-2.58-50.12-16-4.36-37-4.36-37Z" style="fill:#C89768"></path><path d="M30.62,326.4H40.74l7.87-24.62-2.07-14.85s-5.27,6.88-6.92,11.24S30.62,326.4,30.62,326.4Z" style="opacity:0.30000000000000004"></path><path d="M102.42,326c0,.14-16,.26-35.67.26s-35.67-.12-35.67-.26,16-.26,35.67-.26S102.42,325.89,102.42,326Z" style="fill:#263238"></path><path d="M181.7,375.63s.47,0,1.37,0l4,0,15.28,0,56-.11-.19.2c-.29-35.37-.66-81.66-1.06-132.66l.26.26H192.9a36.18,36.18,0,0,0-3.91.11,20.05,20.05,0,0,0-3.77.79,20.86,20.86,0,0,0-6.79,3.41c-3.9,3.26-7.54,6.77-11.12,10.17s-7,6.83-10.35,10.22-6.58,6.74-9.48,10.24a63.32,63.32,0,0,0-4,5.4,27.33,27.33,0,0,0-3,5.76v-.05c0,8.49,0,16.45,0,23.94l-.13-.19a54,54,0,0,1,15.08,8.5A60.56,60.56,0,0,1,166,332.79a82.17,82.17,0,0,1,11.15,22.13A102.7,102.7,0,0,1,181,370.18c.3,1.77.48,3.14.59,4.05s.12,1.4.12,1.4l-.18-1.39c-.12-.91-.33-2.27-.65-4A104.74,104.74,0,0,0,176.93,355a82.28,82.28,0,0,0-11.2-22,59.68,59.68,0,0,0-10.57-11.18,53.35,53.35,0,0,0-15-8.41l-.13-.05v-.13c0-7.49,0-15.45,0-23.94v-.06a27.43,27.43,0,0,1,3.05-5.89,65,65,0,0,1,4-5.45c2.91-3.52,6.17-6.86,9.49-10.28s6.79-6.81,10.36-10.24,7.2-6.91,11.14-10.21a21.49,21.49,0,0,1,6.95-3.51,21.81,21.81,0,0,1,3.87-.81,37.48,37.48,0,0,1,4-.11h64.66V243c.35,51,.68,97.28.93,132.66v.19h-.2l-56.07-.1L187,375.67l-4,0Z" style="fill:#263238"></path><path d="M171.19,303.94s.23,0,.63-.11a3.84,3.84,0,0,0,2.08-6.45,3.76,3.76,0,0,0-1.83-1,11.39,11.39,0,0,0-2.37-.1l-5.35,0-12.26,0a3.69,3.69,0,0,0-2.57,6.34,3.65,3.65,0,0,0,2.44,1l10,.07,6.75.08,1.83.05a2.46,2.46,0,0,1,.64.05,3.2,3.2,0,0,1-.64.05l-1.83.05-6.75.08-10,.05a4.19,4.19,0,0,1,.14-8.38l12.26,0,5.35,0a11.91,11.91,0,0,1,2.46.13,4.15,4.15,0,0,1,2,1.17,4.06,4.06,0,0,1-.59,6.14,4,4,0,0,1-1.73.67A2.17,2.17,0,0,1,171.19,303.94Z" style="fill:#263238"></path><path d="M152.59,285.28,183,250.7a9.07,9.07,0,0,1,6.55-2.81h63.66v37.39Z" style="fill:#455a64"></path><path d="M406.08,246.2a2.39,2.39,0,0,1-.09-.32,2.55,2.55,0,0,1,.91-2.37,2.57,2.57,0,0,1,1-.47,5.37,5.37,0,0,1,1.22-.08l15,0,23.78,0,14.87,0h10.21c.71,0,1.43.06,2.14.13a33.51,33.51,0,0,1,4.27.83,79.85,79.85,0,0,1,16.9,7.2c5.66,3,11,6.95,16.74,10.79l17.64,12,9.23,6.29,4.71,3.21,2.38,1.62,1.2.82.6.41a.67.67,0,0,1,.12.1l0,.07.12.14.22.29a62.36,62.36,0,0,1,6.51,9.84,61,61,0,0,1,6.83,23.32c.28,4.16.39,8.33.57,12.56s.31,8.49.41,12.79q.07,3.23.09,6.48a59.73,59.73,0,0,1-.23,6.54,112.23,112.23,0,0,1-2.41,13q-1.53,6.48-3.44,12.95l-.06.19h-7.32l-125.65,0h-.22v-.23c-.79-32.77-1.48-61.15-2-83.43v0c-5.14-17.24-9.22-30.88-12-40.22-1.39-4.66-2.45-8.24-3.17-10.67-.35-1.21-.62-2.12-.8-2.75s-.26-.94-.26-.94.11.31.3.93.48,1.53.85,2.73c.73,2.43,1.82,6,3.24,10.65l12.15,40.18v0c.58,22.28,1.31,50.66,2.16,83.43l-.23-.22,125.65,0h7.13l-.25.18q1.89-6.45,3.43-12.92a110.12,110.12,0,0,0,2.4-12.94,58.58,58.58,0,0,0,.24-6.49c0-2.17,0-4.32-.1-6.47q-.15-6.45-.4-12.78c-.18-4.22-.28-8.42-.56-12.54a62.77,62.77,0,0,0-2.25-12,63.41,63.41,0,0,0-4.51-11.1,61,61,0,0,0-6.45-9.77l-.22-.29-.11-.14-.06-.07s0,.05,0,0l-.6-.41-1.19-.82-2.38-1.62-4.71-3.21-9.22-6.3-17.63-12c-5.7-3.85-11.06-7.8-16.69-10.8a79.68,79.68,0,0,0-16.8-7.18,31.19,31.19,0,0,0-4.22-.84c-.7-.07-1.4-.09-2.1-.13H462.73l-14.87,0-23.78,0-15-.05a5.16,5.16,0,0,0-1.2.06,2.27,2.27,0,0,0-.92.45,2.37,2.37,0,0,0-.87,1.32A2.68,2.68,0,0,0,406.08,246.2Z" style="fill:#263238"></path><path d="M415.1,247.89l11.08,37.82H538.92s-36.08-24.22-44.24-29.17-17.79-9.14-28.42-8.65S415.1,247.89,415.1,247.89Z" style="fill:#455a64"></path><path d="M505.61,238.74l-13,6.28,62.91,40.69,20.64-6h0C551,263.11,518.33,242.78,505.61,238.74Z" style="fill:#455a64"></path><path d="M720.37,343.74H710.19a3.58,3.58,0,0,1-3.58-3.59h0a3.58,3.58,0,0,1,3.58-3.58h10.18a3.58,3.58,0,0,1,3.59,3.58h0A3.59,3.59,0,0,1,720.37,343.74Z" style="fill:#fff"></path><path d="M723.93,318.29H707.32s-2.38-13.57,1.75-18.05,5.47-3.28,5.47-3.28,5.68,5.58,7.09,10.59A106.73,106.73,0,0,1,723.93,318.29Z" style="opacity:0.30000000000000004"></path><polygon points="274 247.88 278.28 285.71 424.69 285.71 424.69 247.9 274 247.88" style="fill:#455a64"></polygon><polygon points="415.1 247.9 375.8 247.9 386.77 285.71 426.18 285.71 415.1 247.9" style="fill:#263238"></polygon><path d="M394.41,284h0a2.3,2.3,0,0,1-2.78-1.71l-7-29.22a2.32,2.32,0,0,1,1.71-2.79h0a2.32,2.32,0,0,1,2.79,1.71l7,29.23A2.31,2.31,0,0,1,394.41,284Z" style="fill:#455a64"></path><path d="M402.06,284h0a2.31,2.31,0,0,1-2.78-1.71l-7-29.22a2.32,2.32,0,0,1,1.71-2.79h0a2.32,2.32,0,0,1,2.79,1.71l7,29.23A2.31,2.31,0,0,1,402.06,284Z" style="fill:#455a64"></path><path d="M409.71,284h0a2.31,2.31,0,0,1-2.78-1.71l-7-29.22a2.31,2.31,0,0,1,1.7-2.79h0a2.32,2.32,0,0,1,2.79,1.71l7,29.23A2.3,2.3,0,0,1,409.71,284Z" style="fill:#455a64"></path><polygon points="283.47 247.88 246.86 247.88 252.29 285.69 294.55 285.69 283.47 247.88" style="fill:#263238"></polygon><path d="M267.15,284.64h0a2.31,2.31,0,0,1-2.69-1.86L259,253.22a2.32,2.32,0,0,1,1.86-2.69h0a2.31,2.31,0,0,1,2.69,1.86L269,282A2.31,2.31,0,0,1,267.15,284.64Z" style="fill:#455a64"></path><path d="M274.79,284.64h0a2.3,2.3,0,0,1-2.68-1.86l-5.42-29.56a2.31,2.31,0,0,1,1.85-2.69h0a2.31,2.31,0,0,1,2.69,1.86L276.65,282A2.31,2.31,0,0,1,274.79,284.64Z" style="fill:#455a64"></path><path d="M282.43,284.64h0a2.3,2.3,0,0,1-2.68-1.86l-5.42-29.56a2.31,2.31,0,0,1,1.85-2.69h0a2.31,2.31,0,0,1,2.69,1.86L284.29,282A2.31,2.31,0,0,1,282.43,284.64Z" style="fill:#455a64"></path><path d="M585.19,375.63c0,.14-100.57.26-224.61.26S136,375.77,136,375.63s100.55-.26,224.62-.26S585.19,375.48,585.19,375.63Z" style="fill:#263238"></path><path d="M724.87,355c0,.14-8.35.26-18.65.26s-18.66-.12-18.66-.26,8.35-.26,18.66-.26S724.87,354.84,724.87,355Z" style="fill:#263238"></path><circle cx="125.46" cy="369.72" r="42.02" transform="translate(-3.58 1.24) rotate(-0.56)" style="fill:#263238"></circle><path d="M83.45,368.68s0,.08,0,.11a42,42,0,0,0,84,1.85v-.11Z" style="fill:#263238"></path><path d="M96,369.07a29.5,29.5,0,1,0,30.14-28.85A29.5,29.5,0,0,0,96,369.07Z" style="fill:#fafafa"></path><path d="M126.1,340.22A29.5,29.5,0,0,0,96,369.07l59,1.29A29.5,29.5,0,0,0,126.1,340.22Z" style="fill:#e0e0e0"></path><path d="M107.49,369.32a18,18,0,1,0,18.36-17.57A18,18,0,0,0,107.49,369.32Z" style="fill:#263238"></path><circle cx="643.98" cy="369.72" r="42.02" transform="translate(-8.84 15.85) rotate(-1.4)" style="fill:#263238"></circle><path d="M602,368.68s0,.08,0,.11a42,42,0,1,0,84,1.85s0-.07,0-.11Z" style="fill:#263238"></path><path d="M614.49,369.07a29.5,29.5,0,1,0,30.14-28.85A29.49,29.49,0,0,0,614.49,369.07Z" style="fill:#fafafa"></path><path d="M644.63,340.22a29.5,29.5,0,0,0-30.14,28.85l59,1.29A29.5,29.5,0,0,0,644.63,340.22Z" style="fill:#e0e0e0"></path><path d="M626,369.32a18,18,0,1,0,18.36-17.57A18,18,0,0,0,626,369.32Z" style="fill:#263238"></path><path d="M707.81,302.29c0,.14-34.11-3.46-76.15-8s-76.12-8.41-76.11-8.55,34.11,3.45,76.17,8S707.83,302.14,707.81,302.29Z" style="fill:#263238"></path><path d="M421.61,243.21l-.43,0-1.24,0-4.79.05-17.6.08-58.09.08-58.09-.08-17.6-.08-4.79-.05-1.24,0-.43,0a2.43,2.43,0,0,1,.43,0l1.24,0,4.79,0,17.6-.09,58.09-.07,58.09.07,17.6.09,4.79,0,1.24,0A2.43,2.43,0,0,1,421.61,243.21Z" style="fill:#263238"></path><polygon points="307.95 247.9 292.88 285.71 307.95 285.71 323.02 247.9 307.95 247.9" style="fill:#fff;opacity:0.30000000000000004"></polygon><polygon points="335.25 247.9 320.18 285.71 324.88 285.71 339.95 247.9 335.25 247.9" style="fill:#fff;opacity:0.30000000000000004"></polygon><polygon points="202.28 247.9 187.21 285.71 202.28 285.71 217.35 247.9 202.28 247.9" style="fill:#fff;opacity:0.30000000000000004"></polygon><polygon points="229.58 247.9 214.51 285.71 219.21 285.71 234.27 247.9 229.58 247.9" style="fill:#fff;opacity:0.30000000000000004"></polygon><polygon points="448.1 248.33 433.2 285.71 448.1 285.71 463 248.33 448.1 248.33" style="fill:#fff;opacity:0.30000000000000004"></polygon><polygon points="465.32 248.33 450.43 285.71 455.07 285.71 469.96 248.33 465.32 248.33" style="fill:#fff;opacity:0.30000000000000004"></polygon><path d="M462.25,289.2c0,.14-44.5.26-99.38.26s-99.39-.12-99.39-.26,44.49-.26,99.39-.26S462.25,289.05,462.25,289.2Z" style="fill:#fff"></path><path d="M232.1,287.67c0,.14-17.69.26-39.5.26s-39.5-.12-39.5-.26,17.68-.26,39.5-.26S232.1,287.53,232.1,287.67Z" style="fill:#fff"></path><path d="M171.45,298.37a79.38,79.38,0,0,1-9.17.26,79.49,79.49,0,0,1-9.18-.26,82.29,82.29,0,0,1,9.18-.26A82.17,82.17,0,0,1,171.45,298.37Z" style="fill:#fff"></path><path d="M357,240.27c0,.15-34.57.26-77.2.26s-77.22-.11-77.22-.26,34.56-.26,77.22-.26S357,240.13,357,240.27Z" style="fill:#fff"></path><path d="M95.52,280.11a10.91,10.91,0,0,1-1.66.18l-4.51.38c-3.81.33-9.07.87-14.84,1.69s-11,1.78-14.72,2.53l-4.44.91a11.81,11.81,0,0,1-1.64.28,8.48,8.48,0,0,1,1.59-.48c1-.28,2.54-.65,4.41-1.07,3.73-.84,8.93-1.86,14.72-2.69s11.07-1.3,14.89-1.54c1.91-.12,3.46-.19,4.53-.21A9.92,9.92,0,0,1,95.52,280.11Z" style="fill:#fff"></path><path d="M156.66,247.38s-.15.1-.47.24l-1.39.6c-1.21.49-3,1.24-5.09,2.18a179.87,179.87,0,0,0-16.32,8.23A182.52,182.52,0,0,0,118,268.49c-1.9,1.36-3.43,2.48-4.48,3.27l-1.21.9a2,2,0,0,1-.45.28,2.33,2.33,0,0,1,.38-.37l1.16-1c1-.84,2.5-2,4.38-3.41a153.07,153.07,0,0,1,31.78-18.13c2.16-.9,3.93-1.59,5.17-2l1.42-.51Z" style="fill:#fff"></path><path d="M459.5,294.8c0,.15-5.7.27-12.74.27S434,295,434,294.8s5.7-.26,12.74-.26S459.5,294.66,459.5,294.8Z" style="fill:#fff"></path><path d="M519.13,287.67c0,.14-19.4.26-43.32.26s-43.32-.12-43.32-.26,19.39-.26,43.32-.26S519.13,287.53,519.13,287.67Z" style="fill:#fff"></path><path d="M470.2,240.27c0,.15-11.75.26-26.24.26s-26.25-.11-26.25-.26S429.46,240,444,240,470.2,240.13,470.2,240.27Z" style="fill:#fff"></path><path d="M693,293.85l-.27,0-.78-.09-3-.42-11-1.54c-9.34-1.27-22.25-2.9-36.55-4.35s-27.28-2.44-36.67-3.07l-11.14-.7-3-.2-.79-.07a.72.72,0,0,1-.27,0,1.1,1.1,0,0,1,.27,0h.79l3,.1c2.64.1,6.44.28,11.15.54,9.41.53,22.4,1.47,36.71,2.92s27.21,3.14,36.54,4.51c4.66.68,8.43,1.27,11,1.7l3,.51.77.15A1,1,0,0,1,693,293.85Z" style="fill:#fff"></path><path d="M143.09,322.07a8.39,8.39,0,0,1-1.39-.11c-.89-.1-2.18-.25-3.77-.4a124.76,124.76,0,0,0-12.48-.61c-4.88,0-9.29.33-12.47.66-1.59.16-2.88.31-3.77.42a8.39,8.39,0,0,1-1.39.11,6.49,6.49,0,0,1,1.36-.32c.88-.17,2.16-.37,3.75-.58a100.23,100.23,0,0,1,25-.05c1.6.21,2.88.4,3.76.57A6.77,6.77,0,0,1,143.09,322.07Z" style="fill:#fff"></path><path d="M698.88,382.07s0-.19.1-.55.18-.9.32-1.58.36-1.55.52-2.57.28-2.22.45-3.56.17-2.84.27-4.47c.05-.82,0-1.67,0-2.56s0-1.81-.11-2.77a65.29,65.29,0,0,0-2.32-12.75,62.6,62.6,0,0,0-6.38-14.33,57.17,57.17,0,0,0-11.57-13.74A52.79,52.79,0,0,0,663,313.28a60.25,60.25,0,0,0-41.9.7,52.7,52.7,0,0,0-16.8,10.49,57.59,57.59,0,0,0-11.11,14.12,62.82,62.82,0,0,0-5.88,14.55,66.22,66.22,0,0,0-1.9,12.82c-.06,1,0,1.88,0,2.77s0,1.74,0,2.56c.16,1.63.22,3.13.42,4.46s.41,2.51.57,3.53.45,1.86.61,2.56l.37,1.57a4.2,4.2,0,0,1,.11.54s-.06-.18-.16-.53-.24-.89-.43-1.56-.44-1.53-.65-2.55-.39-2.21-.63-3.53-.29-2.84-.46-4.48c-.08-.82,0-1.68-.07-2.57s-.06-1.82,0-2.78A66,66,0,0,1,586.92,353a62.77,62.77,0,0,1,5.87-14.66,57.26,57.26,0,0,1,11.15-14.26,53.18,53.18,0,0,1,16.94-10.61,60.61,60.61,0,0,1,42.27-.71,52.94,52.94,0,0,1,17.28,10,57.54,57.54,0,0,1,11.63,13.87,62.2,62.2,0,0,1,6.36,14.46A64.22,64.22,0,0,1,700.68,364c.09,1,.06,1.89.09,2.78s.07,1.75,0,2.58c-.12,1.64-.15,3.14-.31,4.48s-.36,2.53-.51,3.56-.42,1.88-.57,2.57-.28,1.2-.37,1.57S698.88,382.07,698.88,382.07Z" style="fill:#263238"></path><path d="M646.83,307.6a6.38,6.38,0,0,1-1.39-.05c-.9-.08-2.19-.15-3.79-.17a54.49,54.49,0,0,0-5.62.19,59.16,59.16,0,0,0-6.79,1,58.48,58.48,0,0,0-6.62,1.87c-2,.71-3.75,1.44-5.2,2.13s-2.6,1.27-3.38,1.71a7,7,0,0,1-1.26.62,8.49,8.49,0,0,1,1.15-.79,36,36,0,0,1,3.33-1.87,47.09,47.09,0,0,1,5.2-2.25,54.71,54.71,0,0,1,6.67-1.93,56,56,0,0,1,6.86-1,48,48,0,0,1,5.67-.08,35.56,35.56,0,0,1,3.8.34A7.83,7.83,0,0,1,646.83,307.6Z" style="fill:#fff"></path></g><g id="freepik--Character--inject-35"><path d="M422.12,256.21l-8.56-32.81a13.37,13.37,0,0,0-9.09-9.57l-5.86-1.77,6.49,44c.15,1,3.36,6.35,3.77,7.22.61,1.29,12.65,16.6,13.72,17.54l12.19,10.86,9.69-8.88Z" style="fill:#263238"></path><path d="M422.12,256.21s.15.15.42.45l1.19,1.37,4.51,5.28,16.38,19.33.13.14-.15.13-9.67,8.91-.15.14-.15-.14-8.25-7.33c-1.42-1.3-2.9-2.51-4.35-3.93s-2.56-3.08-3.84-4.67c-2.54-3.19-5.14-6.49-7.72-9.92a31.05,31.05,0,0,1-1.87-2.69c-.49-.93-1.05-1.88-1.58-2.84s-1.06-1.92-1.57-2.91a6.07,6.07,0,0,1-.63-1.61l-.24-1.65c-2.24-15.22-4.35-29.61-6.2-42.17l-.05-.37.35.11,5.62,1.71a13.69,13.69,0,0,1,5,2.66,13.54,13.54,0,0,1,3.36,4.22,21.25,21.25,0,0,1,1.59,4.84c1.63,6.32,3.06,11.87,4.23,16.45s2.08,8.18,2.72,10.67c.3,1.22.54,2.17.7,2.83l.17.73a1,1,0,0,1,.05.26A1.29,1.29,0,0,1,422,256l-.21-.72c-.18-.65-.43-1.59-.76-2.8-.67-2.48-1.63-6.08-2.84-10.63s-2.68-10.12-4.35-16.45a21.72,21.72,0,0,0-1.58-4.75,13.16,13.16,0,0,0-8.13-6.64l-5.63-1.7.3-.25c1.86,12.56,4,26.94,6.25,42.16l.25,1.65a5.62,5.62,0,0,0,.58,1.46c.49,1,1,1.93,1.55,2.89s1.08,1.88,1.59,2.87a30.75,30.75,0,0,0,1.83,2.6c2.57,3.43,5.16,6.73,7.7,9.92,1.27,1.59,2.52,3.16,3.81,4.65,1.37,1.34,2.9,2.62,4.3,3.9l8.23,7.35h-.3c3.46-3.17,6.73-6.16,9.71-8.87l0,.27c-6.83-8.17-12.39-14.83-16.27-19.46l-4.42-5.34-1.14-1.4Z" style="fill:#455a64"></path><path d="M422.05,256.12a38.45,38.45,0,0,0-4.42,2,36.89,36.89,0,0,0-3.81,3,9,9,0,0,1,3.53-3.48A9.18,9.18,0,0,1,422.05,256.12Z" style="fill:#455a64"></path><path d="M395.86,415.21l-.27,15.27s15.43,5.4,15.65,8.23l-29.62.54-.55-23.81Z" style="fill:#263238"></path><path d="M386.41,429.36a1.22,1.22,0,0,0-.81,1.4,1.15,1.15,0,0,0,1.38.81,1.28,1.28,0,0,0,.85-1.48,1.22,1.22,0,0,0-1.53-.69" style="fill:#e0e0e0"></path><path d="M381.62,439.25l0-2.4,28.39.38s1.32.55,1.19,1.48Z" style="fill:#455a64"></path><path d="M396.07,430.32c0,.14-.72.22-1.43.7s-1.07,1.09-1.2,1,.06-.89.92-1.46S396.1,430.19,396.07,430.32Z" style="fill:#fff"></path><path d="M399.2,431.55c0,.14-.59.4-1.07,1s-.61,1.27-.75,1.26-.25-.82.36-1.58S399.19,431.41,399.2,431.55Z" style="fill:#fff"></path><path d="M401,435.23c-.13,0-.34-.68,0-1.48s1-1.13,1.09-1-.34.55-.63,1.21S401.17,435.22,401,435.23Z" style="fill:#fff"></path><path d="M395.74,426.83c-.05.14-.72-.05-1.54,0s-1.45.34-1.52.22.52-.65,1.48-.72S395.81,426.72,395.74,426.83Z" style="fill:#fff"></path><path d="M360.29,414.15l-1.6,18.41,2.92,14.92a1.89,1.89,0,0,1-1.62,2.24h0a1.86,1.86,0,0,1-1.62-.59c-2.64-2.88-12.3-13.52-12.11-14.86.22-1.55.4-19.52.4-19.52Z" style="fill:#263238"></path><path d="M360,449.72,346.34,433l0,.78a2.87,2.87,0,0,0,.55,1.88c1.09,1.45,4.16,5.39,11.47,13.43a1.88,1.88,0,0,0,1.68.6Z" style="fill:#455a64"></path><g style="opacity:0.6000000000000001"><path d="M350.5,427.32a1.15,1.15,0,0,1,.22,1.52,1.11,1.11,0,0,1-1.5.22,1.21,1.21,0,0,1-.22-1.6,1.15,1.15,0,0,1,1.59-.06" style="fill:#fff"></path></g><path d="M356.3,441.4a4,4,0,0,1,3.85-1.6c0-.05-.2-.21-.63-.3a3,3,0,0,0-3,1.24C356.3,441.11,356.25,441.38,356.3,441.4Z" style="fill:#fff"></path><path d="M357.45,444a13.18,13.18,0,0,1,1.69-.69c1-.23,1.77,0,1.81-.12a2.1,2.1,0,0,0-1.91-.28C357.94,443.11,357.36,443.89,357.45,444Z" style="fill:#fff"></path><path d="M354.06,438.07a19.85,19.85,0,0,1,2.52-1.23,17.77,17.77,0,0,1,2.78-.46,4.13,4.13,0,0,0-2.9.07A4.19,4.19,0,0,0,354.06,438.07Z" style="fill:#fff"></path><path d="M354.08,432.44c0,.11,1.08-.25,2.41-.21s2.36.42,2.41.31a3.7,3.7,0,0,0-2.4-.72A3.64,3.64,0,0,0,354.08,432.44Z" style="fill:#fff"></path><path d="M354.41,427a9.26,9.26,0,0,1,2.51-.29,9.12,9.12,0,0,1,2.4.77s-.15-.28-.56-.55a3.88,3.88,0,0,0-1.8-.62,4,4,0,0,0-1.89.25C354.62,426.78,354.39,427,354.41,427Z" style="fill:#fff"></path><path d="M357,425.71a1.5,1.5,0,0,0,.07-.7,4.92,4.92,0,0,0-.43-1.86,2.16,2.16,0,0,0-.86-1.08.76.76,0,0,0-.87.11,1.21,1.21,0,0,0-.34.81,2.66,2.66,0,0,0,2.18,2.62,3.1,3.1,0,0,0,3.15-1.42,1.05,1.05,0,0,0,.1-.89.74.74,0,0,0-.75-.44,2.66,2.66,0,0,0-1.26.55,5.4,5.4,0,0,0-1.34,1.35,1.65,1.65,0,0,0-.33.62,8.55,8.55,0,0,1,1.83-1.73,2.42,2.42,0,0,1,1.11-.46.39.39,0,0,1,.41.24.75.75,0,0,1-.1.58,2.78,2.78,0,0,1-2.74,1.21,2.34,2.34,0,0,1-1.89-2.2.89.89,0,0,1,.22-.58.42.42,0,0,1,.48-.07,2,2,0,0,1,.74.91A6.94,6.94,0,0,1,357,425.71Z" style="fill:#fff"></path><path d="M410.26,287.74A65.82,65.82,0,0,1,411.69,307c-.32,4.1-14.15,117.51-14.15,117.51H378.86L384.11,318l-1.53.33s-10.19,45.46-11,52.82c-.74,6.62-9.34,54.68-9.34,54.68l-17.08.2,5.45-63.58,6.35-61,2.39-17.75Z" style="fill:#263238"></path><path d="M347.52,216.94a8.15,8.15,0,0,0-2.87,5.3c-1,8.22-3.52,29.7-3.79,34.74-.28,5.37.53,12.74,5.62,13.8s27.37,1.27,27.37,1.27L375,255.52l-18.35-.23,1.93-21.43-11.08-16.92Z" style="fill:#263238"></path><polygon points="368.46 204.22 364.71 209.04 347.51 216.94 358.58 261.23 358.08 265.88 351.96 307.44 381.46 306.38 387.05 293.2 391.13 306.41 411.12 306.41 412.11 296.56 403.96 256.99 404.99 245.9 405.91 214.64 390.6 209.04 386.25 202.72 368.46 204.22" style="fill:#263238"></polygon><path d="M386.25,248.26a4.43,4.43,0,0,1-.3-.38l-.81-1.14-2.92-4.2-9.52-14-7-10.37,0-.07,0-.07c.43-1.23.84-2.37,1.21-3.41l.09.17-2.87-1-.08,0v-.09c.19-1.45.34-2.61.46-3.46.05-.37.1-.67.13-.91a1.49,1.49,0,0,1,.07-.31,1.11,1.11,0,0,1,0,.32c0,.24,0,.54-.08.92-.08.85-.2,2-.35,3.47l-.08-.12,2.88.94.14,0,0,.14L366,218.17l0-.14c2,3,4.45,6.55,7,10.34l9.43,14,2.82,4.27.75,1.17A2.05,2.05,0,0,1,386.25,248.26Z" style="fill:#455a64"></path><path d="M390.6,209s.09.06.23.2l.64.63,2.36,2.42.09.09-.1.08-1.14.87,0-.19,1.39,1.59,0,.05v.07l-2.69,13.38c-1.22,5.86-2.32,11.17-3.13,15.07-.41,1.89-.75,3.43-1,4.55-.12.51-.22.92-.29,1.24s-.11.43-.13.42a2.91,2.91,0,0,1,.05-.44c.06-.32.13-.73.22-1.25.22-1.12.52-2.68.88-4.58.78-3.9,1.85-9.22,3-15.09,1.05-5.07,2-9.73,2.77-13.36l0,.13-1.36-1.61-.09-.11.11-.08,1.15-.84v.17L391.38,210l-.59-.68C390.66,209.13,390.59,209.05,390.6,209Z" style="fill:#455a64"></path><path d="M387.17,294.56a2.15,2.15,0,0,1,0-.47c0-.35,0-.8-.06-1.36,0-1.22-.09-2.91-.15-5-.11-4.2-.22-10-.3-16.43s-.1-12.23-.05-16.44c0-2.1.07-3.8.13-5,0-.59.07-1,.11-1.35a1.52,1.52,0,0,1,.08-.35s0-.08.06-.08l0,0c-.07-.1-.11.61-.13,1.77s0,2.87,0,5c0,4.25.1,10,.16,16.44s.14,12.18.19,16.43c0,2.07,0,3.76,0,5v1.36A1.9,1.9,0,0,1,387.17,294.56Z" style="fill:#455a64"></path><polygon points="369.15 203.95 368.46 209.89 386.71 248.93 389.51 230.01 388.83 210.95 386.35 203.95 369.15 203.95" style="fill:#f5f5f5"></polygon><path d="M379.85,212.86a12.08,12.08,0,0,1-.91,2c-.61,1.21-1.47,2.89-2.47,4.79l-.12.23-.18-.2-.79-.86c-1.63-1.79-3.08-3.42-4.13-4.61a16,16,0,0,1-1.62-2,19.37,19.37,0,0,1,1.82,1.81c1.09,1.14,2.58,2.74,4.2,4.53l.8.86-.3,0c1-1.88,1.91-3.54,2.57-4.72A14.39,14.39,0,0,1,379.85,212.86Z" style="fill:#263238"></path><path d="M391.13,306.41a2.45,2.45,0,0,1,.36,0l1,0,4,0,14.58-.07-.15.14c.29-3,.62-6.31,1-9.86v0c-1.41-6.79-3-14.53-4.7-22.72-1.22-5.93-2.39-11.63-3.46-16.85v0c1.07-10.41,2.18-19.31,2.78-25.64l.68-7.4c.07-.84.13-1.5.17-2,0-.21,0-.38.05-.51l0-.17s0,.06,0,.17,0,.3,0,.51c0,.47-.06,1.13-.11,2-.12,1.73-.3,4.25-.59,7.41-.54,6.34-1.59,15.25-2.64,25.66V257c1.07,5.22,2.25,10.92,3.47,16.85,1.68,8.19,3.27,15.93,4.66,22.73v.05c-.37,3.55-.71,6.87-1,9.84v.14h-.13l-14.58-.06-4,0-1,0Z" style="fill:#455a64"></path><path d="M357.55,255.52c-.1,0-.31-5-.47-11.25S356.88,233,357,233s.32,5,.47,11.25S357.65,255.51,357.55,255.52Z" style="fill:#455a64"></path><g style="opacity:0.30000000000000004"><path d="M399.18,265a1.67,1.67,0,0,0-1.31-.52c-6.5-.52-13-1-19.53-.51s-13,2.14-18.55,5.61l-2.81,2c5.94,2,12.5,3.3,18.68,2.29a3.16,3.16,0,0,0,2.06-.91c.53-.68.44-1.64.74-2.45a3.7,3.7,0,0,1,2.9-2.12,13.86,13.86,0,0,1,3.75.06A31.77,31.77,0,0,0,397.66,267a3.07,3.07,0,0,0,1.3-.68A1.11,1.11,0,0,0,399.18,265Z"></path></g><path d="M354.22,255.52c.44.65,20.8.34,20.8,0l-1.54,16.53-19.26-.55" style="fill:#263238"></path><path d="M354.22,271.5l.37,0h1.07l4,.07,13.84.33-.18.16c.25-2.81.53-5.87.83-9.06.24-2.61.48-5.13.7-7.48h.36a.23.23,0,0,1-.08.16l-.05,0-.07,0-.08,0-.15,0-.28,0-.56.05-1.11,0-2.13.07-4,.06c-2.52,0-4.75,0-6.6,0-3.7-.06-5.94-.27-5.88-.48a32.23,32.23,0,0,0,5.88.25c1.85,0,4.08,0,6.6-.05l4-.1,2.13-.08,1.09-.06.55,0,.28,0,.12,0h.06c.06.07,0,.15.1.14h.19c-.22,2.35-.45,4.88-.69,7.49-.3,3.18-.59,6.24-.85,9.05l0,.16h-.16l-13.84-.46-4-.17-1.06-.06A1.38,1.38,0,0,1,354.22,271.5Z" style="fill:#455a64"></path><path d="M388.19,210.06a33.78,33.78,0,0,1-1.27,4.88l-.13.44-.09.28-.21-.2c-.94-.84-1.88-1.5-2.51-2a4.07,4.07,0,0,1-1-.91,6.23,6.23,0,0,1,1.12.71,27.93,27.93,0,0,1,2.61,2l-.31.08.14-.44A33.22,33.22,0,0,1,388.19,210.06Z" style="fill:#263238"></path><polygon points="383.01 212.52 380.19 212.78 378.99 215.08 381.41 218.22 384.19 218.22 385.13 214.09 383.01 212.52" style="fill:#C89768"></polygon><path d="M381.41,218.22s-1.41,6.57-1.2,9.94.3,7.82.3,7.82l6.2,13,1.87-12.5S386,223.1,385.13,221a11.64,11.64,0,0,1-.94-2.82Z" style="fill:#C89768"></path><path d="M384.18,218.12c0,.1-.6.28-1.39.32s-1.43-.07-1.42-.17.63-.16,1.4-.2A3.43,3.43,0,0,1,384.18,218.12Z" style="fill:#263238"></path><path d="M384.13,213.45a9.08,9.08,0,0,1-1.62,2,8.9,8.9,0,0,1-1.88,1.72,9,9,0,0,1,1.61-2A8.59,8.59,0,0,1,384.13,213.45Z" style="fill:#263238"></path><g style="opacity:0.30000000000000004"><path d="M370.38,214s6,7.35,6.15,7.29l2.19-6.28-2.41,4.54-7-7.64Z"></path></g><g style="opacity:0.30000000000000004"><path d="M395.31,215s-2.16-1.76-2.7-1.75l1.37,1.59-.56,2.72c-2.07,9.91-4.18,20.69-6.25,30.6,2.82-9.79,5.4-20.12,7.48-30.09Z"></path></g><path d="M354.12,228.18a32,32,0,0,0-3.13-4.64,34.13,34.13,0,0,0-4.13-3.78,5.8,5.8,0,0,1,1.44.84,16.16,16.16,0,0,1,3,2.7,16.55,16.55,0,0,1,2.24,3.33A5.42,5.42,0,0,1,354.12,228.18Z" style="fill:#455a64"></path><path d="M393,253.62s6.73-.32,6.81,1.09-.47.86-2.19,1.33-7.52,1-7.52,1-.86.79,1.09.55,8.7-.23,9.33,0a1.24,1.24,0,0,1-.47,2.23c-1.41.32-9.8,1-9.8,1s10.7-.08,10.8.63-.3,1.56-1.71,1.8h-.94s.78,1.33-.7,1.57-8,1.17-9.77,1-9.9-.31-9.9-.31l-4,.33.78-8.87,4-.62s5.09-3.37,6.34-4,4.22-.5,6-1.05l-.33,2.21,2.15,0" style="fill:#ae7461"></path><path d="M393.43,253.6a33.23,33.23,0,0,1-3.86.32c-1.07.08-2,.17-2.72.27a5.2,5.2,0,0,1-1.13.14,2.82,2.82,0,0,1,1.08-.39,17.57,17.57,0,0,1,2.74-.39A15.13,15.13,0,0,1,393.43,253.6Z" style="fill:#6f4439"></path><path d="M398.64,263.38a23.24,23.24,0,0,1-4.26.25,24.42,24.42,0,0,1-4.26-.12,23.07,23.07,0,0,1,4.25-.25A25.83,25.83,0,0,1,398.64,263.38Z" style="fill:#6f4439"></path><path d="M411.12,306.41l-.37,0-1.08,0-4.07.06-14.47.1H391l0-.16-4.1-13.2.48,0c-.62,1.48-1.28,3-2,4.62-1.27,3-2.49,5.85-3.64,8.56l-.07.15h-.16l-21.11.66-6.17.15-1.65,0a2.9,2.9,0,0,1-.58,0,2.93,2.93,0,0,1,.57-.06l1.65-.11,6.17-.29,21.1-.85-.22.15,3.63-8.57,2-4.61.27-.65.21.68c1.46,4.75,2.83,9.22,4.05,13.21l-.22-.16,14.47.1,4.07.06,1.08,0A2.24,2.24,0,0,1,411.12,306.41Z" style="fill:#455a64"></path><path d="M386.74,190.26a55.48,55.48,0,0,0,2.48-9.08,19.06,19.06,0,0,0-.63-9.31c-.16-.45-1.54-3.47-2-3.43s.49,2.84.32,3.13A16.19,16.19,0,0,0,385,181a42.63,42.63,0,0,0,1.78,9.28" style="fill:#263238"></path><path d="M386.62,206.38l.57-28.11c.36-7.87-3.93-14.64-11.82-14.78l-.73,0a14.09,14.09,0,0,0-13.5,13.53c-.27,6.83-.48,14.38-.28,18,.4,7.55,8,8.41,8,8.41s0,.67,0,2.89l11.39,6.4,2.73-.26Z" style="fill:#ae7461"></path><path d="M368.87,203.49a18.21,18.21,0,0,0,9.72-3.31s-2.13,5.78-9.7,5.41Z" style="fill:#6f4439"></path><path d="M365,183.36a1.08,1.08,0,0,0,1.08,1,1,1,0,0,0,1.07-1,1.08,1.08,0,0,0-1.08-1A1,1,0,0,0,365,183.36Z" style="fill:#263238"></path><path d="M362.88,180.32c.14.14.94-.5,2.1-.55s2,.5,2.15.36-.08-.32-.47-.57a2.92,2.92,0,0,0-1.73-.46,2.88,2.88,0,0,0-1.66.61C362.92,180,362.81,180.26,362.88,180.32Z" style="fill:#263238"></path><path d="M375.15,183.36a1.08,1.08,0,0,0,1.08,1,1,1,0,0,0,1.07-1,1.08,1.08,0,0,0-1.08-1A1,1,0,0,0,375.15,183.36Z" style="fill:#263238"></path><path d="M374.28,180.12c.14.14.93-.5,2.1-.55s2,.5,2.15.35-.08-.31-.47-.56a2.92,2.92,0,0,0-1.73-.46,2.79,2.79,0,0,0-1.66.61C374.32,179.8,374.21,180.06,374.28,180.12Z" style="fill:#263238"></path><path d="M370.48,189.22a7.36,7.36,0,0,0-1.9-.26c-.3,0-.58-.07-.64-.27a1.5,1.5,0,0,1,.16-.89c.25-.73.51-1.49.79-2.29a38.22,38.22,0,0,0,1.72-6,40.31,40.31,0,0,0-2.2,5.83l-.75,2.31a1.76,1.76,0,0,0-.1,1.17.77.77,0,0,0,.5.42,1.9,1.9,0,0,0,.51,0A7.82,7.82,0,0,0,370.48,189.22Z" style="fill:#263238"></path><path d="M373.75,176.5c.17.29,1.29-.07,2.66-.15s2.52.08,2.65-.23c.05-.15-.19-.41-.68-.63a4.42,4.42,0,0,0-2.06-.32,4.49,4.49,0,0,0-2,.61C373.88,176.07,373.68,176.36,373.75,176.5Z" style="fill:#263238"></path><path d="M362.69,176.91c.25.26,1.19,0,2.32-.09s2.11.13,2.32-.16c.1-.13-.06-.39-.49-.63a3.55,3.55,0,0,0-1.9-.38,3.61,3.61,0,0,0-1.84.57C362.7,176.51,362.58,176.78,362.69,176.91Z" style="fill:#263238"></path><path d="M386.81,183.9c.12-.07,5.13-1.76,5.18,3.42s-5.16,4.15-5.17,4S386.81,183.9,386.81,183.9Z" style="fill:#ae7461"></path><path d="M388.38,189.35s.09.06.24.13a.92.92,0,0,0,.68,0,2.23,2.23,0,0,0,1-2,3,3,0,0,0-.26-1.29,1,1,0,0,0-.69-.69.46.46,0,0,0-.53.26c-.06.14,0,.25-.06.25s-.11-.08-.07-.3a.57.57,0,0,1,.2-.32.69.69,0,0,1,.5-.14,1.28,1.28,0,0,1,1,.8,3,3,0,0,1,.32,1.43,2.34,2.34,0,0,1-1.29,2.25,1,1,0,0,1-.83-.13C388.39,189.48,388.36,189.36,388.38,189.35Z" style="fill:#6f4439"></path><path d="M364.48,168.48c-.84-.47,1.68-3.18,3.73-4.12,3.11-1.41,7.86-2.28,10.73-1.47,3.45,1,6.32,2.7,8.06,5.84a20.38,20.38,0,0,1,2.29,10.39,6.14,6.14,0,0,1-.73,3.16c-.72,1.15-2.11,1.87-2,3.44a2.2,2.2,0,0,1-.54,1.58c-1,1-2.11.07-2.64-.88-1.14-2-1.27-4.45-1.37-6.77a15,15,0,0,1,.33-4.92c.25-.86.66-1.68.86-2.55a3.09,3.09,0,0,0-.37-2.59,3.27,3.27,0,0,0-.42-.42,5.38,5.38,0,0,0-5.35-1c-2.92,1-7.89,2.58-9.19,1.59a8,8,0,0,1-2.32-2.35Z" style="fill:#263238"></path><path d="M374.13,189.94c-.18,0-.18,1.17-1.21,2s-2.28.71-2.29.87.28.23.82.25a2.91,2.91,0,0,0,1.91-.66,2.61,2.61,0,0,0,.94-1.69C374.34,190.23,374.21,189.93,374.13,189.94Z" style="fill:#263238"></path><path d="M389.29,179.12s4.64-2,4.84-6-3.64-7.2-6.55-9.27-13.73-6.38-18.63-5.76c-3.76.48-9.64,4.1-11.07,6.87a6.66,6.66,0,0,0-.53,1.37c-.51,1.88.27,4.42,1.75,6.31l3,2.54Z" style="fill:#263238"></path><path d="M385.17,175.9a38.51,38.51,0,0,1-7.87,1.47c-3.23.09-19.85-.17-20.51-.76s5.62-3.82,5.62-3.82,5.79-2.79,14.75-.51S385.17,175.9,385.17,175.9Z" style="fill:#263238"></path><path d="M385.17,175.9s.06-.22-.22-.51a4.78,4.78,0,0,0-1.44-.9,37.41,37.41,0,0,0-6.05-1.94,28.19,28.19,0,0,0-9.32-.83,19.37,19.37,0,0,0-5.38,1.19,40.75,40.75,0,0,0-5.12,3,3.64,3.64,0,0,0-.54.47c-.08.07-.1.2-.1.11s0,0,.12,0a13.54,13.54,0,0,0,1.46.18c1,.08,2,.14,2.95.19,1.94.09,3.81.15,5.59.2,3.56.1,6.78.16,9.47.17a29.29,29.29,0,0,0,6.29-.8l1.69-.38a4.08,4.08,0,0,1,.6-.12,2,2,0,0,1-.57.22c-.38.12-.94.29-1.67.48a27.5,27.5,0,0,1-6.34,1c-2.7,0-5.91,0-9.48-.06-1.79,0-3.66-.09-5.6-.18-1,0-2-.09-3-.17A14.45,14.45,0,0,1,357,177l-.22-.06a1.29,1.29,0,0,1-.16-.09.42.42,0,0,1-.13-.21.69.69,0,0,1,.22-.57,4.3,4.3,0,0,1,.61-.54,39.63,39.63,0,0,1,5.25-3.05,19.28,19.28,0,0,1,5.53-1.2,27.57,27.57,0,0,1,9.45,1,32.69,32.69,0,0,1,6.05,2.11,4.46,4.46,0,0,1,1.43,1C385.32,175.65,385.2,175.93,385.17,175.9Z" style="fill:#455a64"></path><path d="M389.43,178.71l.54-4s-2.5-8.59-20-8.51c0,0-6.1.81-7.54,2.28l0,4.35c-.64-.75,11.32-2.61,18.37.69A68.1,68.1,0,0,1,389.43,178.71Z" style="fill:#455a64"></path><path d="M445,287.69c.4.13,9.1,6.88,9.1,6.88L457,306.78s-.27.27-2,0-2.65-6.9-2.65-6.9l-.67,5.71-2.39,2a2.66,2.66,0,0,1-.79-2.92l-1.73.13a1.9,1.9,0,0,1,0-2.52,6.79,6.79,0,0,0,1.2-2.13l-1.73-2.58s-6.37,1-7.17-5.38L436.6,290l5.9-5.41Z" style="fill:#ae7461"></path><path d="M457.87,303.94H435.75a3.29,3.29,0,0,1-3.29-3.29h0a3.28,3.28,0,0,1,3.29-3.28h22.12a3.28,3.28,0,0,1,3.29,3.28h0A3.29,3.29,0,0,1,457.87,303.94Z" style="fill:#C89768"></path><path d="M457.87,303.94s.23,0,.65-.12a3.24,3.24,0,0,0,2.47-3.53,3.13,3.13,0,0,0-2.35-2.64,11.7,11.7,0,0,0-2.25-.08h-2.5l-5.51,0-12.63,0a3,3,0,0,0-2.77,4.26,3.07,3.07,0,0,0,2.15,1.74,8.57,8.57,0,0,0,1.45.06h1.48l10.31.06,7,.08,1.89.05a2.51,2.51,0,0,1,.65.05,3.26,3.26,0,0,1-.65.05l-1.89.05-7,.08-10.31.06h-1.48a7.53,7.53,0,0,1-1.55-.07,3.54,3.54,0,0,1,.72-7l12.63,0,5.51,0,2.5,0a11.41,11.41,0,0,1,2.34.12,3.42,3.42,0,0,1,1.52,5.78,3.41,3.41,0,0,1-1.71.86A2.14,2.14,0,0,1,457.87,303.94Z" style="fill:#263238"></path><path d="M446.85,290l5.4,5.22v5.4a1.9,1.9,0,0,1-2.13-1.42,32.28,32.28,0,0,0-1-3.1s-4.14-.08-5.29-2.3a7.25,7.25,0,0,1-1-3.8" style="fill:#ae7461"></path><path d="M442.87,290a9.78,9.78,0,0,0,.64,2.69,7.13,7.13,0,0,0,.64,1.26,3.45,3.45,0,0,0,1.22,1,9.21,9.21,0,0,0,3.76.89h.17l.06.15c.26.66.49,1.36.72,2.08.1.37.21.73.32,1.11a1.56,1.56,0,0,0,.53.83,1.77,1.77,0,0,0,1.28.33l-.22.26c0-1.94,0-3.77,0-5.4l.07.16c-1.6-1.58-2.93-2.9-3.85-3.85a13.2,13.2,0,0,1-1.39-1.53,10.94,10.94,0,0,1,1.58,1.34c1,.89,2.35,2.17,4,3.71l.07.07v.1c0,1.63,0,3.46,0,5.4v.23l-.22,0a2.27,2.27,0,0,1-1.68-.43,2.09,2.09,0,0,1-.71-1.1c-.11-.37-.21-.74-.32-1.1-.21-.71-.44-1.4-.68-2.05l.22.16a9.32,9.32,0,0,1-3.95-1,3.64,3.64,0,0,1-1.32-1.19,6.45,6.45,0,0,1-.63-1.35,7.16,7.16,0,0,1-.42-2.06C442.78,290.28,442.84,290,442.87,290Z" style="fill:#6f4439"></path></g></svg>